<svg width="375" height="100" viewBox="0 0 375 100" fill="none" xmlns="http://www.w3.org/2000/svg">
    <mask id="mask0_1783_258714" style="mask-type:luminance" maskUnits="userSpaceOnUse" x="0" y="0" width="67" height="99">
        <path d="M62 0H5C2.23858 0 0 2.23858 0 5V94C0 96.7614 2.23858 99 5 99H62C64.7614 99 67 96.7614 67 94V5C67 2.23858 64.7614 0 62 0Z" fill="white"/>
    </mask>
    <g mask="url(#mask0_1783_258714)">
        <mask id="mask1_1783_258714" style="mask-type:alpha" maskUnits="userSpaceOnUse" x="50" y="25" width="14" height="14">
            <path d="M54.301 26.4632L51.0006 29.2323C50.6328 29.541 50.4488 29.6953 50.3166 29.8841C50.1995 30.0514 50.1125 30.2379 50.0597 30.4352C50 30.6579 50 30.8981 50 31.3784V36.199C50 37.1795 50 37.6697 50.1907 38.0442C50.3585 38.3735 50.6262 38.6414 50.9555 38.8092C51.3299 39 51.8199 39 52.8 39H52.8875C53.8676 39 54.3576 39 54.732 38.8092C55.0613 38.6414 55.329 38.3735 55.4968 38.0442C55.6875 37.6697 55.6875 37.1795 55.6875 36.199V34.6235C55.6875 34.2156 55.6875 34.0117 55.7541 33.8509C55.8429 33.6364 56.0133 33.466 56.2277 33.3771C56.3885 33.3105 56.5923 33.3105 57 33.3105C57.4077 33.3105 57.6115 33.3105 57.7723 33.3771C57.9867 33.466 58.1571 33.6364 58.2459 33.8509C58.3125 34.0117 58.3125 34.2156 58.3125 34.6235V36.199C58.3125 37.1795 58.3125 37.6697 58.5032 38.0442C58.671 38.3735 58.9387 38.6414 59.268 38.8092C59.6424 39 60.1324 39 61.1125 39H61.2C62.1801 39 62.6701 39 63.0445 38.8092C63.3738 38.6414 63.6415 38.3735 63.8093 38.0442C64 37.6697 64 37.1795 64 36.199V31.3784C64 30.8981 64 30.6579 63.9403 30.4352C63.8875 30.2379 63.8005 30.0514 63.6834 29.8841C63.5512 29.6953 63.3672 29.541 62.9994 29.2323L59.699 26.4632C58.7394 25.658 58.2595 25.2554 57.7233 25.1017C57.2506 24.9661 56.7494 24.9661 56.2767 25.1017C55.7405 25.2554 55.2606 25.658 54.301 26.4632ZM54.8633 27.1339C55.3529 26.723 55.6841 26.4459 55.958 26.2491C56.2231 26.0586 56.3842 25.9814 56.5178 25.9431C56.8329 25.8527 57.1671 25.8527 57.4822 25.9431C57.6158 25.9814 57.7769 26.0586 58.042 26.2491C58.316 26.446 58.6469 26.7229 59.1367 27.1339L62.4371 29.903C62.8411 30.2419 62.9161 30.314 62.9667 30.3863C63.0253 30.4699 63.0687 30.5632 63.0952 30.6618C63.118 30.7471 63.125 30.8509 63.125 31.3784V36.199C63.125 36.7037 63.1243 37.0295 63.1041 37.2775C63.0846 37.5153 63.0517 37.6035 63.0296 37.6468C62.9457 37.8115 62.8119 37.9454 62.6472 38.0293C62.604 38.0513 62.5158 38.0843 62.2781 38.1038C62.0302 38.124 61.7045 38.1247 61.2 38.1247H61.1125C60.608 38.1247 60.2823 38.124 60.0344 38.1038C59.7967 38.0843 59.7085 38.0513 59.6653 38.0293C59.5006 37.9454 59.3668 37.8115 59.2829 37.6468C59.2608 37.6035 59.2279 37.5153 59.2084 37.2775C59.1882 37.0295 59.1875 36.7037 59.1875 36.199V34.6003C59.1875 34.4164 59.1875 34.2373 59.1771 34.085C59.1658 33.9183 59.1391 33.7208 59.0543 33.5159C58.8767 33.0869 58.536 32.7461 58.1072 32.5685C57.9024 32.4836 57.7049 32.4569 57.5383 32.4456C57.386 32.4352 57.207 32.4352 57.0232 32.4352H56.9768C56.793 32.4352 56.614 32.4352 56.4617 32.4456C56.2951 32.4569 56.0976 32.4836 55.8928 32.5685C55.464 32.7461 55.1233 33.0869 54.9457 33.5159C54.8609 33.7208 54.8342 33.9183 54.8229 34.085C54.8125 34.2373 54.8125 34.4164 54.8125 34.6003V36.199C54.8125 36.7037 54.8118 37.0295 54.7916 37.2775C54.7721 37.5153 54.7392 37.6035 54.7171 37.6468C54.6332 37.8115 54.4994 37.9454 54.3347 38.0293C54.2915 38.0513 54.2033 38.0843 53.9656 38.1038C53.7177 38.124 53.392 38.1247 52.8875 38.1247H52.8C52.2955 38.1247 51.9698 38.124 51.7219 38.1038C51.4842 38.0843 51.396 38.0513 51.3528 38.0293C51.1881 37.9454 51.0543 37.8115 50.9704 37.6468C50.9483 37.6035 50.9154 37.5153 50.8959 37.2775C50.8757 37.0295 50.875 36.7037 50.875 36.199V31.3784C50.875 30.8509 50.882 30.7471 50.9048 30.6618C50.9313 30.5632 50.9747 30.4699 51.0333 30.3863C51.0839 30.314 51.1594 30.2415 51.5634 29.9025" fill="#000001"/>
        </mask>
        <g mask="url(#mask1_1783_258714)">
            <path d="M64 25H50V39H64V25Z" fill="#00053D"/>
        </g>
        <mask id="mask2_1783_258714" style="mask-type:alpha" maskUnits="userSpaceOnUse" x="49" y="77" width="14" height="14">
            <path d="M54.25 86.6235V88.3741C54.25 89.1898 54.25 89.5976 54.1168 89.9193C53.9392 90.3483 53.5985 90.6891 53.1697 90.8667C52.8481 91 52.4404 91 51.625 91C50.8096 91 50.4019 91 50.0803 90.8667C49.6515 90.6891 49.3108 90.3483 49.1332 89.9193C49 89.5976 49 89.1898 49 88.3741V83.3784C49 82.8981 49 82.6579 49.0597 82.4352C49.1125 82.2379 49.1995 82.0514 49.3166 81.8841C49.4488 81.6953 49.6328 81.541 50.0006 81.2323L53.301 78.4632C54.2606 77.658 54.7405 77.2554 55.2767 77.1017C55.7494 76.9661 56.2506 76.9661 56.7233 77.1017C57.2595 77.2554 57.7394 77.658 58.699 78.4632L61.9994 81.2323C62.3672 81.541 62.5512 81.6953 62.6834 81.8841C62.8005 82.0514 62.8875 82.2379 62.9403 82.4352C63 82.6579 63 82.8981 63 83.3784V88.3741C63 89.1898 63 89.5976 62.8668 89.9193C62.6892 90.3483 62.3485 90.6891 61.9197 90.8667C61.5981 91 61.1904 91 60.375 91C59.5596 91 59.1519 91 58.8303 90.8667C58.4015 90.6891 58.0608 90.3483 57.8832 89.9193C57.75 89.5976 57.75 89.1898 57.75 88.3741V86.6235C57.75 86.2165 57.75 86.013 57.7053 85.846C57.5839 85.3929 57.2301 85.039 56.7772 84.9176C56.6103 84.8729 56.4069 84.8729 56 84.8729C55.5931 84.8729 55.3897 84.8729 55.2228 84.9176C54.7699 85.039 54.4161 85.3929 54.2947 85.846C54.25 86.013 54.25 86.2165 54.25 86.6235Z" fill="#000001"/>
        </mask>
        <g mask="url(#mask2_1783_258714)">
            <path d="M63 77H49V91H63V77Z" fill="#0B5CFF"/>
        </g>
    </g>
    <mask id="mask3_1783_258714" style="mask-type:luminance" maskUnits="userSpaceOnUse" x="67" y="0" width="44" height="99">
        <path d="M106 0H72C69.2386 0 67 2.23858 67 5V94C67 96.7614 69.2386 99 72 99H106C108.761 99 111 96.7614 111 94V5C111 2.23858 108.761 0 106 0Z" fill="white"/>
    </mask>
    <g mask="url(#mask3_1783_258714)">
        <mask id="mask4_1783_258714" style="mask-type:alpha" maskUnits="userSpaceOnUse" x="97" y="27" width="14" height="15">
            <path d="M104.875 28.375C105.357 28.375 105.75 28.7675 105.75 29.25V32.75C105.75 33.2325 105.357 33.625 104.875 33.625H102.099C101.515 33.625 100.965 33.8525 100.552 34.2657L99.625 35.1929V34.5C99.625 34.0168 99.2333 33.625 98.75 33.625C98.2675 33.625 97.875 33.2325 97.875 32.75V29.25C97.875 28.7675 98.2675 28.375 98.75 28.375H104.875ZM104.875 27.5H98.75C97.7835 27.5 97 28.2835 97 29.25V32.75C97 33.7164 97.7835 34.5 98.75 34.5L98.7501 36.2491C98.7501 36.5129 98.9659 36.6875 99.1908 36.6875C99.2983 36.6875 99.4078 36.6475 99.4969 36.5584L101.171 34.8844C101.417 34.6382 101.751 34.5 102.099 34.5H104.875C105.842 34.5 106.625 33.7164 106.625 32.75V29.25C106.625 28.2834 105.842 27.5 104.875 27.5ZM109.25 32.3125H107.937C107.696 32.3125 107.5 32.5083 107.5 32.75C107.5 32.9916 107.696 33.1875 107.937 33.1875H109.25C109.733 33.1875 110.125 33.5792 110.125 34.0625V37.5976C110.125 38.0825 109.717 38.4281 109.232 38.4377C108.757 38.4471 108.375 38.8352 108.375 39.3125V40.0054L107.448 39.0783C107.038 38.668 106.481 38.4375 105.901 38.4375H103.125C102.642 38.4375 102.25 38.0458 102.25 37.5625V36.1969C102.25 35.9553 102.054 35.7594 101.812 35.7594C101.571 35.7594 101.375 35.9553 101.375 36.1969V37.5625C101.375 38.529 102.158 39.3125 103.125 39.3125H105.901C106.249 39.3125 106.583 39.4508 106.829 39.6969L108.503 41.3709C108.592 41.46 108.702 41.5 108.809 41.5C109.034 41.5 109.25 41.3254 109.25 41.0616V39.3125C110.216 39.3125 111 38.529 111 37.5625V34.0625C111 33.096 110.217 32.3125 109.25 32.3125Z" fill="#000001"/>
        </mask>
        <g mask="url(#mask4_1783_258714)">
            <path d="M111 27.5H97V41.5H111V27.5Z" fill="#00053D"/>
        </g>
        <mask id="mask5_1783_258714" style="mask-type:alpha" maskUnits="userSpaceOnUse" x="97" y="79" width="14" height="15">
            <path d="M104.875 79.5H98.75C97.7835 79.5 97 80.2835 97 81.25V84.75C97 85.7165 97.7835 86.5 98.75 86.5L98.7501 88.2491C98.7501 88.6389 99.2213 88.8341 99.4969 88.5584L101.171 86.8844C101.417 86.6383 101.751 86.5 102.099 86.5H104.875C105.842 86.5 106.625 85.7165 106.625 84.75V81.25C106.625 80.2835 105.842 79.5 104.875 79.5ZM111 86.0625V89.5625C111 90.529 110.217 91.3125 109.25 91.3125V93.0616C109.25 93.4514 108.779 93.6466 108.503 93.3709L106.829 91.6969C106.583 91.4508 106.249 91.3125 105.901 91.3125H103.125C102.158 91.3125 101.375 90.529 101.375 89.5625V88.3016C101.375 88.0558 101.473 87.8202 101.646 87.6464C101.82 87.4727 102.056 87.375 102.302 87.375H104.875C106.325 87.375 107.5 86.1997 107.5 84.75V84.3125H109.25C110.217 84.3125 111 85.096 111 86.0625Z" fill="#000001"/>
        </mask>
        <g mask="url(#mask5_1783_258714)">
            <path d="M111 79.5H97V93.5H111V79.5Z" fill="#0B5CFF"/>
        </g>
    </g>
    <mask id="mask6_1783_258714" style="mask-type:luminance" maskUnits="userSpaceOnUse" x="111" y="0" width="44" height="99">
        <path d="M150 0H116C113.239 0 111 2.23858 111 5V94C111 96.7614 113.239 99 116 99H150C152.761 99 155 96.7614 155 94V5C155 2.23858 152.761 0 150 0Z" fill="white"/>
    </mask>
    <g mask="url(#mask6_1783_258714)">
        <mask id="mask7_1783_258714" style="mask-type:alpha" maskUnits="userSpaceOnUse" x="141" y="25" width="14" height="14">
            <path d="M145.32 26.75C145.682 26.75 145.977 27.0444 145.977 27.4063V28.3031C145.977 28.4784 145.908 28.6433 145.784 28.7673L144.981 29.5707C144.563 29.9886 144.437 30.6059 144.66 31.1436C145.442 33.0282 146.972 34.5579 148.857 35.3403C149.029 35.4116 149.212 35.4479 149.399 35.4479C149.781 35.4479 150.157 35.2916 150.43 35.019L151.233 34.2155C151.355 34.0935 151.524 34.0235 151.697 34.0235H152.594C152.956 34.0235 153.25 34.3179 153.25 34.6798V35.8282C153.25 36.6122 152.606 37.25 151.813 37.25C146.816 37.2416 142.75 33.1692 142.75 28.172C142.75 27.388 143.388 26.7501 144.172 26.7501L145.32 26.75ZM145.32 25.875L144.172 25.8751C142.903 25.8751 141.875 26.9034 141.875 28.172C141.875 33.6631 146.322 38.1157 151.811 38.125H151.815C153.085 38.125 154.125 37.099 154.125 35.8282V34.6798C154.125 33.834 153.439 33.1485 152.594 33.1485H151.696C151.29 33.1485 150.901 33.3098 150.614 33.597L149.811 34.4004C149.7 34.5111 149.55 34.5729 149.399 34.5729C149.329 34.5729 149.259 34.5596 149.192 34.5319C147.509 33.8337 146.166 32.4904 145.468 30.8082C145.38 30.5969 145.438 30.3512 145.6 30.1894L146.403 29.3859C146.69 29.0988 146.851 28.7092 146.851 28.3031V27.4063C146.852 26.5606 146.166 25.875 145.32 25.875Z" fill="#000001"/>
        </mask>
        <g mask="url(#mask7_1783_258714)">
            <path d="M155 25H141V39H155V25Z" fill="#00053D"/>
        </g>
        <mask id="mask8_1783_258714" style="mask-type:alpha" maskUnits="userSpaceOnUse" x="141" y="77" width="14" height="14">
            <path d="M152.594 85.1484H151.697C151.291 85.1484 150.901 85.3097 150.614 85.5969L149.811 86.4003C149.649 86.5621 149.403 86.6196 149.192 86.5318C147.51 85.8337 146.166 84.4904 145.468 82.8081C145.381 82.5968 145.438 82.3512 145.6 82.1894L146.403 81.3859C146.69 81.0988 146.852 80.7093 146.852 80.3031V79.4063C146.852 78.5606 146.166 77.875 145.32 77.875H144.172C142.903 77.875 141.875 78.9033 141.875 80.1719C141.875 85.6631 146.322 90.1156 151.811 90.1249C153.083 90.1271 154.125 89.1002 154.125 87.8281V86.6797C154.125 85.834 153.439 85.1484 152.594 85.1484Z" fill="#000001"/>
        </mask>
        <g mask="url(#mask8_1783_258714)">
            <path d="M155 77H141V91H155V77Z" fill="#0B5CFF"/>
        </g>
    </g>
    <mask id="mask9_1783_258714" style="mask-type:alpha" maskUnits="userSpaceOnUse" x="185" y="27" width="14" height="10">
        <path d="M192 28.5C192.965 28.5 193.75 29.2849 193.75 30.25V35.0625C193.75 35.3039 193.553 35.5 193.312 35.5H187.625C186.66 35.5 185.875 34.7151 185.875 33.75V28.9375C185.875 28.6961 186.071 28.5 186.312 28.5H192ZM198.629 28.3471C198.405 28.2411 198.149 28.265 197.95 28.412L195.675 30.1125C195.482 30.2577 195.443 30.5329 195.588 30.726C195.732 30.9191 196.008 30.9567 196.2 30.8131L198.125 29.3741V34.6259L196.2 33.1869C196.008 33.0433 195.732 33.081 195.588 33.2741C195.443 33.4672 195.482 33.7424 195.675 33.8876L197.95 35.5881C198.149 35.7351 198.405 35.759 198.629 35.653C198.807 35.571 199 35.3709 199 35.0634V28.9366C199 28.6291 198.807 28.429 198.629 28.3471ZM192 27.625H186.312C185.588 27.625 185 28.2129 185 28.9375V33.75C185 35.1996 186.175 36.375 187.625 36.375H193.312C194.037 36.375 194.625 35.7875 194.625 35.0625V30.25C194.625 28.8004 193.45 27.625 192 27.625Z" fill="#000001"/>
    </mask>
    <g mask="url(#mask9_1783_258714)">
        <path d="M199 25H185V39H199V25Z" fill="#00053D"/>
    </g>
    <mask id="mask10_1783_258714" style="mask-type:alpha" maskUnits="userSpaceOnUse" x="185" y="79" width="14" height="10">
        <path d="M194.625 87.0625C194.625 87.7874 194.037 88.375 193.312 88.375H187.625C186.175 88.375 185 87.1998 185 85.75V80.9375C185 80.2126 185.588 79.625 186.312 79.625H192C193.45 79.625 194.625 80.8002 194.625 82.25V87.0625ZM197.95 80.4124L196.025 81.8562C195.694 82.1041 195.5 82.4931 195.5 82.9062V85.0937C195.5 85.5068 195.695 85.8958 196.025 86.1437L197.95 87.5874C198.383 87.9119 199 87.6032 199 87.0624V80.9374C199 80.3966 198.383 80.0879 197.95 80.4124Z" fill="#000001"/>
    </mask>
    <g mask="url(#mask10_1783_258714)">
        <path d="M199 77H185V91H199V77Z" fill="#0B5CFF"/>
    </g>
    <path d="M239.062 25H232.938C231.488 25 230.312 26.1752 230.312 27.625V36.375C230.312 37.8248 231.488 39 232.938 39H239.062C240.512 39 241.688 37.8248 241.688 36.375V27.625C241.688 26.1752 240.512 25 239.062 25ZM240.812 36.375C240.812 37.3399 240.027 38.125 239.062 38.125H232.938C231.972 38.125 231.188 37.3399 231.188 36.375V27.625C231.188 26.6601 231.972 25.875 232.938 25.875H239.062C240.027 25.875 240.812 26.6601 240.812 27.625V36.375ZM233.375 29.8124H236C236.242 29.8124 236.438 29.6167 236.438 29.3749C236.438 29.1331 236.242 28.9374 236 28.9374H233.375C233.133 28.9374 232.938 29.1331 232.938 29.3749C232.938 29.6167 233.133 29.8124 233.375 29.8124ZM238.625 31.5624H233.375C233.133 31.5624 232.938 31.7581 232.938 31.9999C232.938 32.2417 233.133 32.4374 233.375 32.4374H238.625C238.867 32.4374 239.062 32.2417 239.062 31.9999C239.062 31.7581 238.867 31.5624 238.625 31.5624ZM236.875 34.1874H233.375C233.133 34.1874 232.938 34.3831 232.938 34.6249C232.938 34.8667 233.133 35.0624 233.375 35.0624H236.875C237.117 35.0624 237.312 34.8667 237.312 34.6249C237.312 34.3831 237.117 34.1874 236.875 34.1874Z" fill="#00053D"/>
    <path d="M239.062 77H232.938C231.488 77 230.312 78.1752 230.312 79.625V88.375C230.312 89.8248 231.488 91 232.938 91H239.062C240.512 91 241.688 89.8248 241.688 88.375V79.625C241.688 78.1752 240.512 77 239.062 77ZM233.375 80.9374H236C236.242 80.9374 236.438 81.1331 236.438 81.3749C236.438 81.6167 236.242 81.8124 236 81.8124H233.375C233.133 81.8124 232.938 81.6167 232.938 81.3749C232.938 81.1331 233.133 80.9374 233.375 80.9374ZM236.875 87.0624H233.375C233.133 87.0624 232.938 86.8667 232.938 86.6249C232.938 86.3831 233.133 86.1874 233.375 86.1874H236.875C237.117 86.1874 237.312 86.3831 237.312 86.6249C237.312 86.8667 237.117 87.0624 236.875 87.0624ZM238.625 84.4374H233.375C233.133 84.4374 232.938 84.2417 232.938 83.9999C232.938 83.7581 233.133 83.5624 233.375 83.5624H238.625C238.867 83.5624 239.062 83.7581 239.062 83.9999C239.062 84.2417 238.867 84.4374 238.625 84.4374Z" fill="#0B5CFF"/>
    <mask id="mask11_1783_258714" style="mask-type:alpha" maskUnits="userSpaceOnUse" x="273" y="25" width="14" height="14">
        <path d="M280 31.5C280.966 31.5 281.75 30.7165 281.75 29.75C281.75 28.7835 280.966 28 280 28C279.034 28 278.25 28.7835 278.25 29.75C278.25 30.7165 279.034 31.5 280 31.5ZM280 30.625C279.517 30.625 279.125 30.2333 279.125 29.75C279.125 29.2668 279.517 28.875 280 28.875C280.483 28.875 280.875 29.2668 280.875 29.75C280.875 30.2333 280.483 30.625 280 30.625Z" fill="#000001"/>
        <path d="M282.382 35.9715C282.351 35.9779 282.32 35.9832 282.288 35.9875C282.226 35.9957 282.164 36 282.1 36H277.9C277.127 36 276.5 35.3732 276.5 34.6C276.5 33.4402 277.9 32.5 280 32.5C281.294 32.5 282.322 32.8568 282.92 33.4019C283.294 33.7417 283.5 34.1547 283.5 34.6C283.5 35.2765 283.02 35.841 282.382 35.9715ZM282.207 35.1143C282.446 35.0654 282.625 34.8527 282.625 34.6C282.625 34.4471 282.56 34.2567 282.331 34.0489C281.945 33.6976 281.158 33.375 280 33.375C279.07 33.375 278.365 33.5847 277.924 33.8586C277.483 34.1319 277.375 34.4112 277.375 34.6C277.375 34.8899 277.61 35.125 277.9 35.125H282.1C282.125 35.125 282.148 35.1233 282.171 35.1203C282.183 35.1187 282.195 35.1167 282.207 35.1143Z" fill="#000001"/>
        <path d="M273 28.5C273 26.567 274.567 25 276.5 25H283.5C285.433 25 287 26.567 287 28.5V35.5C287 37.433 285.433 39 283.5 39H276.5C274.567 39 273 37.433 273 35.5V28.5ZM276.5 25.875C275.05 25.875 273.875 27.0503 273.875 28.5V35.5C273.875 36.9497 275.05 38.125 276.5 38.125H283.5C284.95 38.125 286.125 36.9497 286.125 35.5V28.5C286.125 27.0503 284.95 25.875 283.5 25.875H276.5Z" fill="#000001"/>
    </mask>
    <g mask="url(#mask11_1783_258714)">
        <path d="M287 25H273V39H287V25Z" fill="#00053D"/>
    </g>
    <mask id="mask12_1783_258714" style="mask-type:alpha" maskUnits="userSpaceOnUse" x="273" y="77" width="14" height="14">
        <path d="M276.5 77C274.567 77 273 78.567 273 80.5V87.5C273 89.433 274.567 91 276.5 91H283.5C285.433 91 287 89.433 287 87.5V80.5C287 78.567 285.433 77 283.5 77H276.5ZM281.75 81.75C281.75 82.7165 280.966 83.5 280 83.5C279.034 83.5 278.25 82.7165 278.25 81.75C278.25 80.7835 279.034 80 280 80C280.966 80 281.75 80.7835 281.75 81.75ZM280 84.5C281.294 84.5 282.322 84.8568 282.92 85.4019C283.294 85.7417 283.5 86.1547 283.5 86.6C283.5 87.2765 283.02 87.841 282.382 87.9715C282.351 87.9779 282.32 87.9832 282.288 87.9875C282.226 87.9957 282.164 88 282.1 88H277.9C277.127 88 276.5 87.3732 276.5 86.6C276.5 85.4402 277.9 84.5 280 84.5Z" fill="#000001"/>
    </mask>
    <g mask="url(#mask12_1783_258714)">
        <path d="M287 77H273V91H287V77Z" fill="#0B5CFF"/>
    </g>
    <mask id="mask13_1783_258714" style="mask-type:alpha" maskUnits="userSpaceOnUse" x="317" y="26" width="14" height="12">
        <path d="M324.569 35.2472L323.488 35.788C323.004 36.0298 323.004 36.72 323.488 36.9619L324.569 37.5027C324.812 37.6242 325.08 37.6875 325.352 37.6875H330.125C330.608 37.6875 331 37.2958 331 36.8125V35.9375C331 35.4542 330.608 35.0625 330.125 35.0625H325.352C325.08 35.0624 324.812 35.1257 324.569 35.2472ZM331 28.0625V33.7494C331 33.991 330.804 34.1869 330.562 34.1869C330.321 34.1869 330.125 33.991 330.125 33.7494V28.0625C330.125 27.58 329.732 27.1875 329.25 27.1875H318.75C318.268 27.1875 317.875 27.58 317.875 28.0625V35.0625C317.875 35.545 318.268 35.9375 318.75 35.9375H321.812C322.054 35.9375 322.25 36.1334 322.25 36.375C322.25 36.6166 322.054 36.8125 321.812 36.8125H318.75C317.783 36.8125 317 36.029 317 35.0625V28.0625C317 27.096 317.783 26.3125 318.75 26.3125H329.25C330.216 26.3125 331 27.096 331 28.0625Z" fill="#000001"/>
    </mask>
    <g mask="url(#mask13_1783_258714)">
        <path d="M331 25H317V39H331V25Z" fill="#00053D"/>
    </g>
    <mask id="mask14_1783_258714" style="mask-type:alpha" maskUnits="userSpaceOnUse" x="317" y="78" width="14" height="12">
        <path d="M324.569 87.2472L323.488 87.788C323.004 88.0298 323.004 88.72 323.488 88.9619L324.569 89.5027C324.812 89.6243 325.08 89.6875 325.352 89.6875H330.125C330.608 89.6875 331 89.2958 331 88.8125V87.9375C331 87.4543 330.608 87.0625 330.125 87.0625H325.352C325.08 87.0625 324.812 87.1257 324.569 87.2472ZM331 80.0625V86.1869H330.125H325.352C324.946 86.1869 324.541 86.2827 324.178 86.4639L323.096 87.0048C322.574 87.2657 322.25 87.7904 322.25 88.3742V88.8126H318.75C317.783 88.8126 317 88.0291 317 87.0626V80.0626C317 79.0961 317.783 78.3126 318.75 78.3126H329.25C330.216 78.3125 331 79.0959 331 80.0625Z" fill="#000001"/>
    </mask>
    <g mask="url(#mask14_1783_258714)">
        <path d="M331 77H317V91H331V77Z" fill="#0B5CFF"/>
    </g>
    <path d="M361.918 26.3876C361.037 26.8306 360.936 28.0501 361.733 28.632L364.214 30.444C364.677 30.782 365.305 30.782 365.768 30.444L368.249 28.632C369.046 28.0501 368.945 26.8306 368.064 26.3876L365.583 25.1403C365.21 24.9532 364.772 24.9532 364.4 25.1403L361.918 26.3876ZM362.251 27.9215C361.985 27.7275 362.019 27.321 362.313 27.1734L364.794 25.9261C364.918 25.8637 365.064 25.8637 365.188 25.9261L367.67 27.1734C367.963 27.321 367.997 27.7275 367.731 27.9215L365.25 29.7335C365.096 29.8462 364.886 29.8462 364.732 29.7335L362.251 27.9215Z" fill="#00053D"/>
    <path d="M361.918 37.6124C361.037 37.1694 360.936 35.9499 361.733 35.368L364.214 33.556C364.677 33.218 365.305 33.218 365.768 33.556L368.249 35.368C369.046 35.9499 368.945 37.1694 368.064 37.6124L365.583 38.8597C365.21 39.0468 364.772 39.0468 364.4 38.8597L361.918 37.6124ZM362.251 36.0785C361.985 36.2725 362.019 36.679 362.313 36.8266L364.794 38.0739C364.918 38.1363 365.064 38.1363 365.188 38.0739L367.67 36.8266C367.963 36.679 367.997 36.2725 367.731 36.0785L365.25 34.2665C365.096 34.1538 364.886 34.1538 364.732 34.2665L362.251 36.0785Z" fill="#00053D"/>
    <path d="M370.6 35.0701C370.157 35.9522 368.939 36.0533 368.357 35.2559L366.547 32.7723C366.209 32.309 366.209 31.6798 366.547 31.2165L368.357 28.7329C368.939 27.9356 370.157 28.0367 370.6 28.9187L371.846 31.4024C372.033 31.7749 372.033 32.214 371.846 32.5865L370.6 35.0701ZM369.067 34.7373C369.261 35.0031 369.667 34.9694 369.815 34.6754L371.061 32.1918C371.123 32.0676 371.123 31.9212 371.061 31.7971L369.815 29.3134C369.667 29.0194 369.261 28.9857 369.067 29.2515L367.257 31.7351C367.144 31.8896 367.144 32.0993 367.257 32.2537L369.067 34.7373Z" fill="#00053D"/>
    <path d="M359.386 35.0701C359.829 35.9522 361.047 36.0533 361.629 35.2559L363.25 33.0316C363.7 32.4139 363.7 31.5749 363.25 30.9573L361.629 28.7329C361.047 27.9356 359.829 28.0367 359.386 28.9187L358.14 31.4024C357.953 31.7749 357.953 32.214 358.14 32.5865L359.386 35.0701ZM360.919 34.7373C360.725 35.0031 360.319 34.9694 360.171 34.6754L358.925 32.1918C358.863 32.0676 358.863 31.9212 358.925 31.7971L360.171 29.3134C360.319 29.0194 360.725 28.9857 360.919 29.2515L362.54 31.4758C362.765 31.7847 362.765 32.2042 362.54 32.513L360.919 34.7373Z" fill="#00053D"/>
    <path d="M365.383 77.5316C365.136 77.4072 364.844 77.4072 364.597 77.5316L362.248 78.7136C361.662 79.0082 361.595 79.8192 362.125 80.2061L364.474 81.9235C364.781 82.1483 365.199 82.1483 365.506 81.9235L367.855 80.2061C368.384 79.8192 368.318 79.0082 367.732 78.7136L365.383 77.5316Z" fill="#0B5CFF"/>
    <path d="M362.051 78.3217C361.173 78.7637 361.073 79.9801 361.866 80.5605L364.215 82.2778C364.677 82.615 365.303 82.615 365.764 82.2778L368.113 80.5605C368.907 79.9801 368.807 78.7637 367.928 78.3217L365.579 77.14C365.209 76.9533 364.771 76.9533 364.4 77.14L362.051 78.3217ZM362.383 79.8518C362.118 79.6584 362.152 79.2529 362.444 79.1056L364.793 77.9238C364.917 77.8616 365.063 77.8616 365.186 77.9238L367.535 79.1056C367.828 79.2529 367.862 79.6584 367.597 79.8518L365.248 81.5691C365.094 81.6815 364.885 81.6815 364.732 81.5691L362.383 79.8518Z" fill="#0B5CFF"/>
    <path d="M365.383 90.4684C365.136 90.5928 364.844 90.5928 364.597 90.4684L362.248 89.2864C361.662 88.9918 361.595 88.1808 362.125 87.7939L364.474 86.0765C364.781 85.8517 365.199 85.8517 365.506 86.0765L367.855 87.7939C368.384 88.1808 368.318 88.9918 367.732 89.2864L365.383 90.4684Z" fill="#0B5CFF"/>
    <path d="M362.051 89.6783C361.173 89.2363 361.073 88.0199 361.866 87.4395L364.215 85.7222C364.677 85.385 365.303 85.385 365.764 85.7222L368.113 87.4395C368.907 88.0199 368.807 89.2363 367.928 89.6783L365.579 90.86C365.209 91.0467 364.771 91.0467 364.4 90.86L362.051 89.6783ZM362.383 88.1482C362.118 88.3416 362.152 88.7471 362.444 88.8944L364.793 90.0762C364.917 90.1384 365.063 90.1384 365.186 90.0762L367.535 88.8944C367.828 88.7471 367.862 88.3416 367.597 88.1482L365.248 86.4309C365.094 86.3185 364.885 86.3185 364.732 86.4309L362.383 88.1482Z" fill="#0B5CFF"/>
    <path d="M371.456 83.6018C371.58 83.8496 371.58 84.1415 371.456 84.3892L370.276 86.7427C369.982 87.3293 369.172 87.3964 368.786 86.8661L367.072 84.5126C366.848 84.2045 366.848 83.7865 367.072 83.4785L368.786 81.1249C369.172 80.5947 369.982 80.6617 370.276 81.2483L371.456 83.6018Z" fill="#0B5CFF"/>
    <path d="M370.667 86.9394C370.226 87.8193 369.012 87.9202 368.432 87.1248L366.718 84.7715C366.382 84.3094 366.382 83.6817 366.718 83.2196L368.432 80.8663C369.012 80.0709 370.226 80.1717 370.667 81.0517L371.847 83.4049C372.033 83.7765 372.033 84.2145 371.847 84.5861L370.667 86.9394ZM369.14 86.6075C369.333 86.8726 369.738 86.839 369.885 86.5457L371.064 84.1924C371.126 84.0685 371.126 83.9225 371.064 83.7987L369.885 81.4454C369.738 81.1521 369.333 81.1185 369.14 81.3836L367.426 83.7369C367.314 83.8909 367.314 84.1001 367.426 84.2542L369.14 86.6075Z" fill="#0B5CFF"/>
    <path d="M358.531 83.6018C358.406 83.8496 358.406 84.1415 358.531 84.3892L359.71 86.7427C360.005 87.3293 360.814 87.3964 361.2 86.8661L362.726 84.7712C363.063 84.309 363.063 83.682 362.726 83.2199L361.2 81.1249C360.814 80.5947 360.005 80.6617 359.71 81.2483L358.531 83.6018Z" fill="#0B5CFF"/>
    <path d="M359.319 86.9394C359.76 87.8193 360.975 87.9202 361.554 87.1248L363.079 85.0295C363.528 84.4134 363.528 83.5777 363.079 82.9615L361.554 80.8663C360.975 80.0709 359.76 80.1717 359.319 81.0517L358.14 83.4049C357.953 83.7765 357.953 84.2145 358.14 84.5861L359.319 86.9394ZM360.847 86.6075C360.653 86.8726 360.249 86.839 360.102 86.5457L358.922 84.1924C358.86 84.0685 358.86 83.9225 358.922 83.7987L360.102 81.4454C360.249 81.1521 360.653 81.1185 360.847 81.3836L362.373 83.4782C362.597 83.7863 362.597 84.2048 362.373 84.5128L360.847 86.6075Z" fill="#0B5CFF"/>
</svg>
