<svg fill="none" height="28" viewBox="0 0 222 28" width="222" xmlns="http://www.w3.org/2000/svg" xmlns:xlink="http://www.w3.org/1999/xlink"><radialGradient id="a" cx="0" cy="0" gradientTransform="matrix(9.48534059 10.63187036 -7.07583764 6.31278672 14.667 .028065)" gradientUnits="userSpaceOnUse" r="1"><stop offset=".0217354" stop-color="#2752ee"/><stop offset=".125202" stop-color="#3b66ef"/><stop offset=".456783" stop-color="#77a3f4"/><stop offset=".700454" stop-color="#9cc9f7"/><stop offset=".828202" stop-color="#abd8f9"/></radialGradient><radialGradient id="b" cx="0" cy="0" gradientTransform="matrix(9.67167699 6.47782623 -5.68015977 8.4807262 21.6362 4.86684)" gradientUnits="userSpaceOnUse" r="1"><stop offset=".510475" stop-color="#a8d5fa" stop-opacity="0"/><stop offset=".54273" stop-color="#a9d5f9" stop-opacity=".01"/><stop offset=".592336" stop-color="#acd6f9" stop-opacity=".013866"/><stop offset=".653115" stop-color="#b2d7f9" stop-opacity=".067126"/><stop offset=".722701" stop-color="#b9d9f9" stop-opacity=".207479"/><stop offset=".799753" stop-color="#c3dbf9" stop-opacity=".50005"/><stop offset=".879701" stop-color="#cfdef9"/></radialGradient><linearGradient id="c"><stop offset=".500893" stop-color="#a8d5fa" stop-opacity="0"/><stop offset=".566227" stop-color="#a8d5f9" stop-opacity=".01"/><stop offset=".629873" stop-color="#aad5f9" stop-opacity=".01"/><stop offset=".692883" stop-color="#add6f9" stop-opacity=".020031"/><stop offset=".755497" stop-color="#b1d7f9" stop-opacity=".063601"/><stop offset=".817834" stop-color="#b7d8f9" stop-opacity=".155876"/><stop offset=".879988" stop-color="#bedaf9" stop-opacity=".324412"/><stop offset=".940784" stop-color="#c6dbf9" stop-opacity=".596347"/><stop offset="1" stop-color="#cfdef9"/></linearGradient><radialGradient id="d" cx="0" cy="0" gradientTransform="matrix(-1.13981173 11.59822728 -10.14652066 -.99714577 22.1601 3.15616)" gradientUnits="userSpaceOnUse" r="1" xlink:href="#c"/><linearGradient id="e"><stop offset=".404348" stop-color="#504af4"/><stop offset=".406561" stop-color="#504bf4" stop-opacity=".983459"/><stop offset=".472174" stop-color="#656bf5" stop-opacity=".580786"/><stop offset=".539782" stop-color="#7888f6" stop-opacity=".312179"/><stop offset=".607989" stop-color="#87a1f7" stop-opacity=".149838"/><stop offset=".676961" stop-color="#94b4f7" stop-opacity=".061013"/><stop offset=".746863" stop-color="#9ec4f8" stop-opacity=".01917"/><stop offset=".81814" stop-color="#a5cff8" stop-opacity=".01"/><stop offset=".891604" stop-color="#a9d5f8" stop-opacity=".01"/><stop offset=".970667" stop-color="#abd8f9" stop-opacity="0"/></linearGradient><radialGradient id="f" cx="0" cy="0" gradientTransform="matrix(9.71213974 6.50492707 -4.05694137 6.05719035 23.8377 8.5306)" gradientUnits="userSpaceOnUse" r="1" xlink:href="#e"/><radialGradient id="g" cx="0" cy="0" gradientTransform="matrix(6.69671474 9.58981038 -5.97348293 4.17137666 16.1321 -.257697)" gradientUnits="userSpaceOnUse" r="1"><stop offset=".25134" stop-color="#504af4"/><stop offset=".254151" stop-color="#504bf4" stop-opacity=".983459"/><stop offset=".337492" stop-color="#656bf5" stop-opacity=".580786"/><stop offset=".423365" stop-color="#7888f6" stop-opacity=".312179"/><stop offset=".510001" stop-color="#87a1f7" stop-opacity=".149838"/><stop offset=".597607" stop-color="#94b4f7" stop-opacity=".061013"/><stop offset=".686396" stop-color="#9ec4f8" stop-opacity=".01917"/><stop offset=".776931" stop-color="#a5cff8" stop-opacity=".01"/><stop offset=".870243" stop-color="#a9d5f8" stop-opacity=".01"/><stop offset=".970667" stop-color="#abd8f9" stop-opacity="0"/></radialGradient><radialGradient id="h" cx="0" cy="0" gradientTransform="matrix(11.20064124 1.53548199 -1.02098266 7.44760313 19.1226 12.1271)" gradientUnits="userSpaceOnUse" r="1"><stop offset=".230411" stop-color="#0d29f2"/><stop offset=".311467" stop-color="#1030f1"/><stop offset=".433085" stop-color="#1b44f1"/><stop offset=".580163" stop-color="#2c66f0"/><stop offset=".745615" stop-color="#4394ef"/><stop offset=".88404" stop-color="#5ac1ee"/></radialGradient><radialGradient id="i" cx="0" cy="0" gradientTransform="matrix(3.44038454 -15.96081906 18.36861781 3.95939008 25.8247 22.7423)" gradientUnits="userSpaceOnUse" r="1"><stop offset=".335116" stop-color="#abd8f9" stop-opacity="0"/><stop offset=".392471" stop-color="#a8d5f8" stop-opacity=".01"/><stop offset=".453682" stop-color="#a0ccf6" stop-opacity=".01"/><stop offset=".516741" stop-color="#94bdf4" stop-opacity=".03009"/><stop offset=".581045" stop-color="#82a9f0" stop-opacity=".095038"/><stop offset=".646332" stop-color="#6b8feb" stop-opacity=".232216"/><stop offset=".71242" stop-color="#4f6fe6" stop-opacity=".482193"/><stop offset=".777956" stop-color="#2e4adf" stop-opacity=".88541"/><stop offset=".79239" stop-color="#2742de"/></radialGradient><linearGradient id="j"><stop offset=".233141" stop-color="#2742de"/><stop offset=".312542" stop-color="#334fe0" stop-opacity=".824412"/><stop offset=".475907" stop-color="#5273e6" stop-opacity=".44852"/><stop offset=".706629" stop-color="#84acf1" stop-opacity=".084714"/><stop offset=".872818" stop-color="#abd8f9" stop-opacity="0"/></linearGradient><radialGradient id="k" cx="0" cy="0" gradientTransform="matrix(4.31982365 -11.37452766 13.0940004 4.97284584 21.0982 12.8019)" gradientUnits="userSpaceOnUse" r="1" xlink:href="#j"/><radialGradient id="l" cx="0" cy="0" gradientTransform="matrix(11.03529129 13.52867547 -12.16314606 9.92143392 15.1586 4.81254)" gradientUnits="userSpaceOnUse" r="1"><stop offset=".240068" stop-color="#262fea"/><stop offset=".28796" stop-color="#3446ea"/><stop offset=".395733" stop-color="#5275ec"/><stop offset=".491039" stop-color="#6898ed"/><stop offset=".569266" stop-color="#75aded"/><stop offset=".620709" stop-color="#7ab5ee"/></radialGradient><radialGradient id="m" cx="0" cy="0" gradientTransform="matrix(11.78615035 1.7570569 -1.11970723 7.51087672 6.9789 6.80449)" gradientUnits="userSpaceOnUse" r="1"><stop offset=".156203" stop-color="#7ab5ee" stop-opacity="0"/><stop offset=".277407" stop-color="#79b4ed" stop-opacity=".01"/><stop offset=".388558" stop-color="#78b3ed" stop-opacity=".01"/><stop offset=".495827" stop-color="#77b0ed" stop-opacity=".019881"/><stop offset=".600735" stop-color="#74aded" stop-opacity=".063348"/><stop offset=".703893" stop-color="#72a9ed" stop-opacity=".155565"/><stop offset=".805745" stop-color="#6ea3ed" stop-opacity=".324193"/><stop offset=".904614" stop-color="#6a9ded" stop-opacity=".596639"/><stop offset="1" stop-color="#6697ed"/></radialGradient><radialGradient id="n" cx="0" cy="0" gradientTransform="matrix(-4.57494903 11.02150127 -7.00373722 -2.90720293 13.9728 4.89704)" gradientUnits="userSpaceOnUse" r="1" xlink:href="#j"/><radialGradient id="o" cx="0" cy="0" gradientTransform="matrix(-5.39122812 6.62445019 -11.23348839 -9.14223774 12.3287 15.1967)" gradientUnits="userSpaceOnUse" r="1"><stop offset=".236478" stop-color="#262fea"/><stop offset=".269201" stop-color="#3141ea"/><stop offset=".352948" stop-color="#4b6aeb"/><stop offset=".434809" stop-color="#5f8aec"/><stop offset=".513189" stop-color="#6ea2ed"/><stop offset=".586631" stop-color="#76b0ed"/><stop offset=".650134" stop-color="#7ab5ee"/></radialGradient><radialGradient id="p" cx="0" cy="0" gradientTransform="matrix(-5.39122812 6.62445019 -11.23348839 -9.14223774 6.72012 25.53)" gradientUnits="userSpaceOnUse" r="1" xlink:href="#e"/><radialGradient id="q" cx="0" cy="0" gradientTransform="matrix(-3.99077569 8.40909898 -14.24945322 -6.76248093 .704744 19.4664)" gradientUnits="userSpaceOnUse" r="1"><stop offset=".343534" stop-color="#504af4"/><stop offset=".392819" stop-color="#5d5ef4" stop-opacity=".733031"/><stop offset=".478311" stop-color="#717ef5" stop-opacity=".399282"/><stop offset=".56459" stop-color="#8399f6" stop-opacity=".192218"/><stop offset=".649784" stop-color="#91b0f7" stop-opacity=".078663"/><stop offset=".733684" stop-color="#9cc1f8" stop-opacity=".024906"/><stop offset=".815939" stop-color="#a4cef8" stop-opacity=".01"/><stop offset=".895822" stop-color="#a9d5f8" stop-opacity=".01"/><stop offset=".970667" stop-color="#abd8f9" stop-opacity="0"/></radialGradient><radialGradient id="r" cx="0" cy="0" gradientTransform="matrix(-5.06514787 4.79087709 -6.07581804 -6.42364983 13.1561 14.2681)" gradientUnits="userSpaceOnUse" r="1"><stop offset=".184665" stop-color="#2742e2"/><stop offset=".412277" stop-color="#3964eb"/><stop offset=".724756" stop-color="#559afa"/></radialGradient><radialGradient id="s" cx="0" cy="0" gradientTransform="matrix(4.2375162 4.95961819 -4.25799709 3.63804852 14.6654 8.86918)" gradientUnits="userSpaceOnUse" r="1"><stop offset=".131404" stop-color="#8d5df7"/><stop offset=".339695" stop-color="#6c4cf0"/><stop offset=".721934" stop-color="#272be2"/></radialGradient><radialGradient id="t" cx="0" cy="0" gradientTransform="matrix(2.24102106 4.27663764 -2.84402342 1.49031013 26.3457 -.201829)" gradientUnits="userSpaceOnUse" r="1"><stop offset=".0217354" stop-color="#2752ee"/><stop offset=".0889829" stop-color="#335eef"/><stop offset=".392239" stop-color="#6692f3"/><stop offset=".656012" stop-color="#8bb8f6"/><stop offset=".867435" stop-color="#a2cff8"/><stop offset="1" stop-color="#abd8f9"/></radialGradient><radialGradient id="u" cx="0" cy="0" gradientTransform="matrix(3.27615325 2.19427835 -1.92407677 2.87273051 26.453 1.14356)" gradientUnits="userSpaceOnUse" r="1"><stop offset=".38924" stop-color="#a8d5fa" stop-opacity="0"/><stop offset=".450557" stop-color="#acd7f9" stop-opacity=".0147"/><stop offset=".584574" stop-color="#b8def9" stop-opacity=".185926"/><stop offset=".780072" stop-color="#cbeaf9" stop-opacity=".849218"/><stop offset=".810355" stop-color="#cfecf9"/></radialGradient><radialGradient id="v" cx="0" cy="0" gradientTransform="matrix(-.38609495 3.92873391 -3.4369928 -.33776926 26.6304 .564091)" gradientUnits="userSpaceOnUse" r="1" xlink:href="#c"/><radialGradient id="w" cx="0" cy="0" gradientTransform="matrix(3.2898707 2.20346593 -1.37423561 2.05179369 27.5264 2.12036)" gradientUnits="userSpaceOnUse" r="1"><stop offset=".385514" stop-color="#504af4"/><stop offset=".387801" stop-color="#504bf4" stop-opacity=".983459"/><stop offset=".455596" stop-color="#656bf5" stop-opacity=".580786"/><stop offset=".525452" stop-color="#7888f6" stop-opacity=".312179"/><stop offset=".595928" stop-color="#87a1f7" stop-opacity=".149838"/><stop offset=".667193" stop-color="#94b4f7" stop-opacity=".061013"/><stop offset=".73942" stop-color="#9ec4f8" stop-opacity=".01917"/><stop offset=".813068" stop-color="#a5cff8" stop-opacity=".01"/><stop offset=".888975" stop-color="#a9d5f8" stop-opacity=".01"/><stop offset=".970667" stop-color="#abd8f9" stop-opacity="0"/></radialGradient><radialGradient id="x" cx="0" cy="0" gradientTransform="matrix(3.4218166 1.72217692 -1.14440454 2.27383284 26.2866 4.53064)" gradientUnits="userSpaceOnUse" r="1"><stop offset=".230411" stop-color="#2654fa"/><stop offset=".363248" stop-color="#3563fa"/><stop offset=".621972" stop-color="#5c8dfa"/><stop offset=".978288" stop-color="#9bcffa"/><stop offset=".98809" stop-color="#9dd1fb"/></radialGradient><radialGradient id="y" cx="0" cy="0" gradientTransform="matrix(1.1653867 -5.40652535 6.22211329 1.34118821 27.7561 6.05895)" gradientUnits="userSpaceOnUse" r="1"><stop offset=".395185" stop-color="#abd8f9" stop-opacity="0"/><stop offset=".549789" stop-color="#a9d6f9" stop-opacity=".01"/><stop offset=".607998" stop-color="#a6d3f9" stop-opacity=".01"/><stop offset=".649934" stop-color="#9fcdf9" stop-opacity=".01"/><stop offset=".684087" stop-color="#96c3f9" stop-opacity=".022992"/><stop offset=".713458" stop-color="#8ab8f9" stop-opacity=".057972"/><stop offset=".739576" stop-color="#7ca9f9" stop-opacity=".123127"/><stop offset=".763272" stop-color="#6a98f9" stop-opacity=".232471"/><stop offset=".785107" stop-color="#5684f9" stop-opacity=".4031"/><stop offset=".804603" stop-color="#406ef9" stop-opacity=".642377"/><stop offset=".822789" stop-color="#2755f9" stop-opacity=".9729"/><stop offset=".824021" stop-color="#2654fa"/></radialGradient><radialGradient id="z" cx="0" cy="0" gradientTransform="matrix(1.46327671 -3.85295391 4.43541326 1.68448341 26.2707 3.83137)" gradientUnits="userSpaceOnUse" r="1" xlink:href="#j"/><radialGradient id="A" cx="0" cy="0" gradientTransform="matrix(4.24523221 4.11559753 -3.70165099 3.81824702 23.1091 1.0461)" gradientUnits="userSpaceOnUse" r="1"><stop offset=".200556" stop-color="#2759f5"/><stop offset=".368625" stop-color="#4883f2"/><stop offset=".595402" stop-color="#7ac2ee"/></radialGradient><radialGradient id="B" cx="0" cy="0" gradientTransform="matrix(-3.07095701 .76522015 -.38863056 -1.55963971 22.7956 4.62781)" gradientUnits="userSpaceOnUse" r="1"><stop offset=".233141" stop-color="#6cb4f4"/><stop offset=".279182" stop-color="#75b9f4" stop-opacity=".727253"/><stop offset=".349603" stop-color="#81c0f5" stop-opacity=".428582"/><stop offset=".423979" stop-color="#8cc6f6" stop-opacity=".229485"/><stop offset=".501073" stop-color="#96ccf7" stop-opacity=".109592"/><stop offset=".581582" stop-color="#9dd0f7" stop-opacity=".044326"/><stop offset=".666695" stop-color="#a3d3f8" stop-opacity=".01376"/><stop offset=".758451" stop-color="#a7d6f8" stop-opacity=".01"/><stop offset=".8616" stop-color="#aad7f8" stop-opacity=".01"/><stop offset="1" stop-color="#abd8f9" stop-opacity="0"/></radialGradient><radialGradient id="C" cx="0" cy="0" gradientTransform="matrix(3.88089573 -1.11143631 .56380013 1.96866839 19.4098 2.76452)" gradientUnits="userSpaceOnUse" r="1"><stop offset="0" stop-color="#2755f6"/><stop offset=".112437" stop-color="#2856f5" stop-opacity=".967811"/><stop offset=".224635" stop-color="#2c5bf5" stop-opacity=".87422"/><stop offset=".336878" stop-color="#3363f4" stop-opacity=".728458"/><stop offset=".449183" stop-color="#3c6ef3" stop-opacity=".546333"/><stop offset=".56163" stop-color="#487cf2" stop-opacity=".350124"/><stop offset=".674129" stop-color="#578df1" stop-opacity=".169086"/><stop offset=".784612" stop-color="#69a1ef" stop-opacity=".040704"/><stop offset=".877927" stop-color="#7ab5ee" stop-opacity="0"/></radialGradient><radialGradient id="D" cx="0" cy="0" gradientTransform="matrix(-1.54970058 3.73338082 -2.37242172 -.98477587 23.8571 1.15376)" gradientUnits="userSpaceOnUse" r="1" xlink:href="#j"/><radialGradient id="E" cx="0" cy="0" gradientTransform="matrix(-2.06918743 2.78606165 -4.72381313 -3.50834116 19.3294 6.66856)" gradientUnits="userSpaceOnUse" r="1"><stop offset=".42844" stop-color="#33b5fc"/><stop offset=".496789" stop-color="#32b0fb"/><stop offset=".575817" stop-color="#30a2fb"/><stop offset=".660144" stop-color="#2e8afa"/><stop offset=".747585" stop-color="#2b6af9"/><stop offset=".812324" stop-color="#284ef8"/></radialGradient><radialGradient id="F" cx="0" cy="0" gradientTransform="matrix(-1.82620673 2.24394428 -3.80519246 -3.09680955 22.0179 7.60559)" gradientUnits="userSpaceOnUse" r="1"><stop offset=".401475" stop-color="#2cc0fc"/><stop offset=".520594" stop-color="#4bc5fb" stop-opacity=".563956"/><stop offset=".684251" stop-color="#74cdfa" stop-opacity=".187256"/><stop offset=".819126" stop-color="#91d3f9" stop-opacity=".039631"/><stop offset=".918109" stop-color="#a4d6f9" stop-opacity=".01"/><stop offset=".970667" stop-color="#abd8f9" stop-opacity="0"/></radialGradient><radialGradient id="G" cx="0" cy="0" gradientTransform="matrix(-1.35181877 2.84846323 -2.17049689 -1.03007067 24.1633 8.98787)" gradientUnits="userSpaceOnUse" r="1"><stop offset=".342211" stop-color="#2680fb"/><stop offset=".371788" stop-color="#398dfa" stop-opacity=".724922"/><stop offset=".416356" stop-color="#549efa" stop-opacity=".427542"/><stop offset=".463257" stop-color="#6badf9" stop-opacity=".229055"/><stop offset=".511621" stop-color="#7ebaf9" stop-opacity=".109473"/><stop offset=".56181" stop-color="#8ec5f9" stop-opacity=".044334"/><stop offset=".61445" stop-color="#9bcdf9" stop-opacity=".013793"/><stop offset=".670593" stop-color="#a4d3f9" stop-opacity=".01"/><stop offset=".732664" stop-color="#a9d6f9" stop-opacity=".01"/><stop offset=".81239" stop-color="#abd8f9" stop-opacity="0"/></radialGradient><radialGradient id="H" cx="0" cy="0" gradientTransform="matrix(3.03490826 -1.74471268 1.14477098 1.99131637 21.6545 4.45398)" gradientUnits="userSpaceOnUse" r="1"><stop offset=".0384488" stop-color="#5cc2fd"/><stop offset=".0480204" stop-color="#5ec3fd"/><stop offset=".226728" stop-color="#88d5fd"/><stop offset=".388071" stop-color="#a7e2fe"/><stop offset=".524989" stop-color="#baeafe"/><stop offset=".621097" stop-color="#c1edff"/></radialGradient><radialGradient id="I" cx="0" cy="0" gradientTransform="matrix(1.43540205 1.67999853 -1.44233389 1.23233979 23.9518 2.42329)" gradientUnits="userSpaceOnUse" r="1"><stop offset=".278066" stop-color="#54b9fe"/><stop offset=".867294" stop-color="#67ccfd"/></radialGradient><clipPath id="J"><path d="m.400024 0h221.2v28h-221.2z"/></clipPath><g clip-path="url(#J)"><g fill="#0d213f"><path d="m107.844 7.04785h2.504l5.081 13.56715h-2.597l-1.064-3.0128h-5.493l-1.046 3.0128h-2.429zm-.878 8.57065h4.092l-2.055-5.81979z"/><path d="m118.967 20.615h-2.372v-13.56715h2.372z"/><path d="m137.555 16.1051c-.286 1.5221-.94 2.6947-1.961 3.5181-1.022.8233-2.317 1.235-3.886 1.235-.997 0-1.881-.1684-2.653-.5052s-1.426-.814-1.961-1.4316c-.536-.6175-.944-1.3628-1.224-2.2362-.28-.8731-.42-1.84-.42-2.9005 0-1.0603.146-2.0211.439-2.8819.292-.8609.716-1.5968 1.27-2.20816.554-.61115 1.224-1.079 2.008-1.40356.785-.32424 1.669-.48658 2.653-.48658 1.507 0 2.765.4117 3.774 1.2351 1.008.8234 1.65 1.9962 1.924 3.5181h-2.279c-.212-.923-.626-1.62162-1.243-2.09582-.616-.47399-1.367-.71119-2.251-.71119-.535 0-1.037.1094-1.504.32757-.467.21838-.875.53971-1.223.96364-.349.4243-.623.9483-.822 1.572-.2.6239-.299 1.3474-.299 2.1708 0 .8232.096 1.5532.289 2.1894s.464 1.1728.813 1.6093c.349.4368.753.7673 1.214.9918.461.2246.965.3368 1.514.3368.921 0 1.69-.2339 2.307-.7017.616-.4679 1.03-1.1696 1.242-2.1052z"/><path d="m143.442 10.3226c.635 0 1.245.1062 1.83.3182.586.2123 1.106.5333 1.56.9637.455.4304.819.9764 1.093 1.6375.274.6613.411 1.4473.411 2.3578 0 .9108-.137 1.6967-.411 2.3579-.274.6614-.638 1.207-1.093 1.6375-.454.4304-.974.7485-1.56.9543-.585.2059-1.195.3087-1.83.3087s-1.246-.1028-1.831-.3087c-.586-.2058-1.105-.5239-1.56-.9543-.455-.4305-.819-.9761-1.093-1.6375-.274-.6612-.411-1.4471-.411-2.3579 0-.9105.137-1.6965.411-2.3578.274-.6611.638-1.2071 1.093-1.6375s.974-.7514 1.56-.9637c.585-.212 1.196-.3182 1.831-.3182zm0 8.7205c.373 0 .716-.0717 1.027-.2152.311-.1433.585-.3556.822-.6363s.421-.6362.551-1.0666c.131-.4305.196-.9386.196-1.5252 0-.5737-.065-1.079-.196-1.5157-.13-.4366-.314-.7982-.551-1.0854-.237-.2869-.511-.502-.822-.6457-.311-.1432-.654-.2151-1.027-.2151-.374 0-.717.0719-1.028.2151-.311.1437-.585.3588-.822.6457-.236.2872-.42.6488-.551 1.0854-.131.4367-.196.942-.196 1.5157 0 .5866.065 1.0947.196 1.5252.131.4304.315.7859.551 1.0666.237.2807.511.493.822.6363.311.1435.654.2152 1.028.2152z"/><path d="m151.992 20.615h-2.223v-10.0677h2.223v1.4034c.286-.5239.676-.9262 1.168-1.207.492-.2807 1.074-.4211 1.746-.4211.785 0 1.411.1562 1.878.4679.467.312.819.7485 1.055 1.31.436-.6364.935-1.0915 1.495-1.3662.56-.2742 1.152-.4117 1.775-.4117.597 0 1.105.0936 1.522.2808.417.1871.757.4555 1.018.8047.262.3494.452.7672.57 1.2537.118.4866.178 1.0293.178 1.6281v6.3251h-2.223v-5.7824c0-.3368-.016-.6673-.047-.9919-.031-.3242-.106-.6142-.224-.8701-.119-.2556-.296-.4584-.533-.6082-.236-.1496-.56-.2245-.971-.2245s-.757.078-1.037.2339c-.28.1562-.508.3713-.682.6456-.174.2746-.299.6053-.374.9918-.074.3868-.112.8047-.112 1.2538v5.352h-2.223v-5.7824c0-.3368-.015-.6673-.046-.9919-.032-.3242-.106-.6142-.225-.8701-.118-.2556-.296-.4584-.532-.6082-.237-.1496-.561-.2245-.972-.2245s-.756.078-1.036.2339c-.28.1562-.508.3713-.682.6456-.175.2746-.299.6053-.374.9918-.075.3868-.112.8047-.112 1.2538z"/><path d="m168.518 10.5473v1.3473c.299-.4989.703-.8856 1.214-1.1603.511-.2742 1.102-.4117 1.775-.4117.61 0 1.18.1217 1.709.3649.53.2434.987.596 1.373 1.0574.386.4616.688 1.0169.906 1.6654.218.6489.327 1.3726.327 2.1708 0 .8112-.109 1.541-.327 2.1894-.218.6489-.52 1.2041-.906 1.6655-.386.4618-.843.8141-1.373 1.0573-.529.2434-1.099.3649-1.709.3649-.673 0-1.264-.1374-1.775-.4117-.511-.2742-.915-.661-1.214-1.1602v4.6036h-2.223v-13.3426zm-.094 5.0338c0 .5865.066 1.0947.197 1.5251.13.4305.314.7892.551 1.076.236.2872.513.5024.831.6457.318.1435.657.2152 1.018.2152.785 0 1.395-.3088 1.831-.9264.436-.6175.654-1.4625.654-2.5356 0-1.0603-.218-1.8994-.654-2.517-.436-.6175-1.046-.9262-1.831-.9262-.361 0-.7.0719-1.018.2151-.318.1437-.595.3556-.831.6364-.237.2806-.421.6394-.551 1.076-.131.4368-.197.942-.197 1.5157z"/><path d="m181.324 10.2479c.623 0 1.198.0747 1.728.2245.529.1497.987.393 1.373.7298s.682.7798.887 1.3287c.206.549.302 1.2227.29 2.021 0 .1248-.003.2901-.009.4958-.007.206-.01.4276-.01.6644 0 .2371-.003.4836-.009.7392-.007.2558-.009.4958-.009.7205 0 .6362.024 1.2631.074 1.8806s.125 1.1386.225 1.5626h-2.037c-.037-.2121-.072-.4178-.103-.6175-.031-.1995-.059-.474-.084-.8234-.311.5613-.753.9824-1.326 1.2631s-1.233.421-1.98.421c-.548 0-1.05-.0718-1.504-.2151-.455-.1433-.847-.3462-1.177-.6083-.33-.2619-.586-.5768-.766-.9449-.181-.3678-.271-.7828-.271-1.2445 0-.6236.181-1.1415.542-1.5532s.85-.7485 1.466-1.0105c.617-.262 1.333-.4614 2.149-.5989.815-.1371 1.684-.2554 2.606-.3555v-.2432c0-.424-.056-.7766-.168-1.0574-.112-.2807-.265-.5052-.458-.6737-.193-.1683-.42-.2868-.682-.3555-.261-.0684-.548-.103-.859-.103-.573 0-1.053.1498-1.439.4492s-.591.755-.616 1.3661h-2.186c.037-.5114.168-.9793.392-1.4036.225-.4239.526-.7888.906-1.0947.38-.3055.829-.5426 1.346-.711.516-.1685 1.086-.2526 1.709-.2526zm2.111 5.6326c-.797.0749-1.476.1623-2.036.262-.561.1-1.022.2246-1.383.3743s-.626.3275-.794.5333c-.168.2059-.252.4523-.252.7391 0 .4369.168.7799.504 1.0293.337.2497.785.3743 1.346.3743.821 0 1.463-.2275 1.924-.6831.46-.4553.691-1.2132.691-2.2737z"/><path d="m189.659 11.9507c.287-.5239.688-.9262 1.205-1.207.517-.2807 1.13-.4211 1.84-.4211.61 0 1.131.0936 1.56.2808.43.1871.782.4555 1.056.8047.274.3494.476.7672.607 1.2537.131.4866.196 1.0293.196 1.6281v6.3251h-2.223v-5.7824c0-.3368-.019-.6673-.056-.9919-.038-.3242-.121-.6142-.252-.8701-.131-.2556-.324-.4584-.579-.6082-.256-.1496-.595-.2245-1.019-.2245-.423 0-.784.078-1.083.2339-.299.1562-.542.3713-.729.6456-.187.2746-.32.6053-.401.9918-.082.3868-.122.8047-.122 1.2538v5.352h-2.223v-10.0677h2.223z"/><path d="m200.248 7.04785v2.24557h-2.223v-2.24557zm0 3.49935v10.0678h-2.223v-10.0678z"/><path d="m206.597 10.3226c.636 0 1.246.1062 1.831.3182.585.2123 1.105.5333 1.56.9637s.819.9764 1.093 1.6375c.274.6613.411 1.4473.411 2.3578 0 .9108-.137 1.6967-.411 2.3579-.274.6614-.638 1.207-1.093 1.6375-.455.4304-.975.7485-1.56.9543-.585.2059-1.195.3087-1.831.3087-.635 0-1.245-.1028-1.83-.3087-.586-.2058-1.106-.5239-1.56-.9543-.455-.4305-.819-.9761-1.093-1.6375-.274-.6612-.411-1.4471-.411-2.3579 0-.9105.137-1.6965.411-2.3578.274-.6611.638-1.2071 1.093-1.6375.454-.4304.974-.7514 1.56-.9637.585-.212 1.195-.3182 1.83-.3182zm0 8.7205c.374 0 .716-.0717 1.028-.2152.311-.1433.585-.3556.822-.6363.236-.2807.42-.6362.551-1.0666.131-.4305.196-.9386.196-1.5252 0-.5737-.065-1.079-.196-1.5157-.131-.4366-.315-.7982-.551-1.0854-.237-.2869-.511-.502-.822-.6457-.312-.1432-.654-.2151-1.028-.2151-.373 0-.716.0719-1.027.2151-.312.1437-.586.3588-.822.6457-.237.2872-.42.6488-.551 1.0854-.131.4367-.196.942-.196 1.5157 0 .5866.065 1.0947.196 1.5252.131.4304.314.7859.551 1.0666.236.2807.51.493.822.6363.311.1435.654.2152 1.027.2152z"/><path d="m215.148 11.9507c.286-.5239.688-.9262 1.205-1.207.517-.2807 1.13-.4211 1.84-.4211.61 0 1.13.0936 1.56.2808.43.1871.781.4555 1.055.8047.274.3494.477.7672.608 1.2537.13.4866.196 1.0293.196 1.6281v6.3251h-2.223v-5.7824c0-.3368-.019-.6673-.057-.9919-.037-.3242-.121-.6142-.252-.8701-.13-.2556-.324-.4584-.579-.6082-.255-.1496-.595-.2245-1.018-.2245-.424 0-.785.078-1.083.2339-.299.1562-.542.3713-.729.6456-.187.2746-.321.6053-.402.9918-.081.3868-.121.8047-.121 1.2538v5.352h-2.223v-10.0677h2.223z"/></g><path d="m47.547 20.6142h-10.9673c-.7695 0-1.457-.4602-1.7515-1.1723-.2944-.7121-.1331-1.5245.411-2.0695l7.5967-7.60955h-5.4447c-1.4957 0-2.7082-1.21457-2.7082-2.71283h10.1143c.7694 0 1.4569.46004 1.7514 1.17216s.1333 1.52438-.4108 2.06962l-7.5967 7.6095h6.2976c1.4957 0 2.7082 1.2146 2.7082 2.7129zm48.4771-8.4776c0-2.91698-2.369-5.29004-5.281-5.29004-1.5576 0-2.9594.6794-3.9269 1.75744-.9674-1.07804-2.3693-1.75744-3.9269-1.75744-2.912 0-5.281 2.37306-5.281 5.29004v8.4776c1.4957 0 2.7082-1.2146 2.7082-2.7129v-5.7647c0-1.4211 1.1541-2.57721 2.5728-2.57721 1.4186 0 2.5728 1.15611 2.5728 2.57721v5.7647c0 1.4983 1.2125 2.7129 2.7082 2.7129v-8.4776c0-1.4211 1.1542-2.57721 2.5728-2.57721 1.4187 0 2.5728 1.15611 2.5728 2.57721v5.7647c0 1.4983 1.2125 2.7129 2.7082 2.7129zm-19.77 1.6955c0 3.858-3.1222 6.9855-6.9736 6.9855-3.8515 0-6.9737-3.1275-6.9737-6.9855 0-3.85801 3.1222-6.98554 6.9737-6.98554 3.8514 0 6.9736 3.12753 6.9736 6.98554zm-2.7082 0c0-2.3598-1.9097-4.27271-4.2654-4.27271-2.3558 0-4.2655 1.91291-4.2655 4.27271 0 2.3597 1.9097 4.2727 4.2655 4.2727 2.3557 0 4.2654-1.913 4.2654-4.2727zm-12.3224 0c0 3.858-3.1222 6.9855-6.9736 6.9855-3.8515 0-6.9737-3.1275-6.9737-6.9855 0-3.85801 3.1222-6.98554 6.9737-6.98554 3.8514 0 6.9736 3.12753 6.9736 6.98554zm-2.7082 0c0-2.3598-1.9097-4.27271-4.2654-4.27271-2.3558 0-4.2655 1.91291-4.2655 4.27271 0 2.3597 1.9097 4.2727 4.2655 4.2727 2.3557 0 4.2654-1.913 4.2654-4.2727z" fill="#0b5cff"/><path d="m17.7692 18.5398c-.9203.9387-2.2081 2.9918-2.9064 4.7526-.8947 2.2559-1.3047 3.4439-1.8973 3.4439-.3486 0-.8446-.9471-1.1679-1.7478-.3329-.8246-.6965-1.7578-1.0456-2.4919-.3576-.7518-.7433-1.505-1.12529-2.1065-.49869-.7853-.98833-1.3563-1.37382-1.7782-.72291-.7912-2.31546-1.8473-3.95632-2.6203-2.03558-.9589-4.174256-1.6545-4.174256-2.2736 0-.6629 2.500706-1.4355 4.166546-2.2151 1.63697-.7661 3.18021-1.79234 3.94915-2.59019 1.01162-1.04964 1.86969-2.32106 2.50369-3.62661.2525-.51987.7072-1.61278 1.1345-2.58117.433-.98116.8395-1.834508 1.2396-1.834508.5098 0 1.1023 1.475048 1.3927 2.168138.384.91648.8408 2.03101 1.7302 3.57961.8993 1.56592 2.006 2.6825 3.1608 3.48583 1.0398.7233 2.8927 1.6272 5.0931 2.5466 1.0723.4481 1.4897.8052 1.4897 1.1177 0 .3512-.5032.6221-1.2537.943-1.0181.4352-2.476.9832-3.5871 1.5253-1.6095.7852-2.6615 1.5782-3.3723 2.3032z" stroke="#000" stroke-miterlimit="10" stroke-width=".115472"/><path d="m24.4927 12.65c-2.2004-.9194-4.0532-1.8233-5.0931-2.5466-1.1548-.80331-2.2614-1.9199-3.1608-3.48582-.8894-1.5486-1.3462-2.66313-1.7302-3.57961-.2879-.68718-.8728-2.142764-1.3796-2.167548v12.695278l12.8533.1958c-.0055-.3111-.4244-.6664-1.4896-1.1115z" fill="url(#a)"/><path d="m24.4927 12.6627c-2.2004-.9194-4.0532-1.8233-5.0931-2.5466-1.1548-.80332-2.2614-1.9199-3.1608-3.48582-.8894-1.5486-1.3462-2.66313-1.7302-3.57961-.2879-.68718-.8728-2.142769-1.3796-2.167552v12.695282l12.8533.1957c-.0055-.311-.4244-.6663-1.4896-1.1114z" fill="url(#b)"/><path d="m24.4927 12.6627c-2.2004-.9194-4.0532-1.8233-5.0931-2.5466-1.1548-.80332-2.2614-1.9199-3.1608-3.48582-.8894-1.5486-1.3462-2.66313-1.7302-3.57961-.2879-.68718-.8728-2.142769-1.3796-2.167552v12.695282l12.8533.1957c-.0055-.311-.4244-.6663-1.4896-1.1114z" fill="url(#d)"/><path d="m24.4927 12.65c-2.2004-.9194-4.0532-1.8233-5.0931-2.5466-1.1548-.80331-2.2614-1.9199-3.1608-3.48582-.8894-1.5486-1.3462-2.66313-1.7302-3.57961-.2879-.68718-.8728-2.142764-1.3796-2.167548v12.695278l12.8533.1958c-.0055-.3111-.4244-.6664-1.4896-1.1115z" fill="url(#f)"/><path d="m24.4927 12.65c-2.2004-.9194-4.0532-1.8233-5.0931-2.5466-1.1548-.80331-2.2614-1.9199-3.1608-3.48582-.8894-1.5486-1.3462-2.66313-1.7302-3.57961-.2879-.68718-.8728-2.142764-1.3796-2.167548v12.695278l12.8533.1958c-.0055-.3111-.4244-.6664-1.4896-1.1115z" fill="url(#g)"/><path d="m13.0146 26.7334c.5668-.0643.9785-1.248 1.8482-3.441.6983-1.7608 1.9861-3.8139 2.9064-4.7525.7108-.725 1.7629-1.5181 3.3724-2.3033 1.111-.5421 2.569-1.0901 3.587-1.5253.7506-.3209 1.2538-.5917 1.2538-.943 0-.002-.0001-.0041-.0001-.0062l-12.9677-.1958z" fill="url(#h)"/><path d="m13.0146 26.7334c.5668-.0643.9785-1.248 1.8482-3.441.6983-1.7608 1.9861-3.8139 2.9064-4.7525.7108-.725 1.7629-1.5181 3.3724-2.3033 1.111-.5421 2.569-1.0901 3.587-1.5253.7506-.3209 1.2538-.5917 1.2538-.943 0-.002-.0001-.0041-.0001-.0062l-12.9677-.1958z" fill="url(#i)"/><path d="m13.0146 26.7334c.5668-.0643.9785-1.248 1.8482-3.441.6983-1.7608 1.9861-3.8139 2.9064-4.7525.7108-.725 1.7629-1.5181 3.3724-2.3033 1.111-.5421 2.569-1.0901 3.587-1.5253.7506-.3209 1.2538-.5917 1.2538-.943 0-.002-.0001-.0041-.0001-.0062l-12.9677-.1958z" fill="url(#k)"/><path d="m13.1289.871007c-.0044-.000214-.0087-.000585-.0131-.000585-.4001 0-.8066.853338-1.2396 1.834508-.4273.96839-.882 2.0613-1.1345 2.58117-.634 1.30555-1.49207 2.57697-2.50369 3.62661-.76894.79785-2.31218 1.82409-3.94916 2.59019-1.66583.7796-4.166536 1.5522-4.166536 2.2151 0 .0055.000223.0111.000567.0167l13.006019.0351z" fill="url(#l)"/><path d="m13.1289.871007c-.0044-.000214-.0087-.000585-.0131-.000585-.4001 0-.8066.853338-1.2396 1.834508-.4273.96839-.882 2.0613-1.1345 2.58117-.634 1.30555-1.49207 2.57697-2.50369 3.62661-.76894.79785-2.31218 1.82409-3.94916 2.59019-1.66583.7796-4.166536 1.5522-4.166536 2.2151 0 .0055.000223.0111.000567.0167l13.006019.0351z" fill="url(#m)"/><path d="m13.1289.871007c-.0044-.000214-.0087-.000585-.0131-.000585-.4001 0-.8066.853338-1.2396 1.834508-.4273.96839-.882 2.0613-1.1345 2.58117-.634 1.30555-1.49207 2.57697-2.50369 3.62661-.76894.79785-2.31218 1.82409-3.94916 2.59019-1.66583.7796-4.166536 1.5522-4.166536 2.2151 0 .0055.000223.0111.000567.0167l13.006019.0351z" fill="url(#n)"/><path d="m13.0146 13.7698-12.891675-.0348c.038627.6149 2.156725 1.3064 4.173665 2.2566 1.64086.773 3.23341 1.8291 3.95632 2.6203.38549.4219.87513.9929 1.37381 1.7782.38198.6015.76768 1.3547 1.12528 2.1065.3492.7341.7128 1.6673 1.0457 2.4919.3232.8007.8192 1.7478 1.1678 1.7478.0165 0 .0329-.0011.0491-.0029z" fill="url(#o)"/><path d="m13.0146 13.7698-12.891675-.0348c.038627.6149 2.156725 1.3064 4.173665 2.2566 1.64086.773 3.23341 1.8291 3.95632 2.6203.38549.4219.87513.9929 1.37381 1.7782.38198.6015.76768 1.3547 1.12528 2.1065.3492.7341.7128 1.6673 1.0457 2.4919.3232.8007.8192 1.7478 1.1678 1.7478.0165 0 .0329-.0011.0491-.0029z" fill="url(#p)"/><path d="m13.0146 13.7698-12.891675-.0348c.038627.6149 2.156725 1.3064 4.173665 2.2566 1.64086.773 3.23341 1.8291 3.95632 2.6203.38549.4219.87513.9929 1.37381 1.7782.38198.6015.76768 1.3547 1.12528 2.1065.3492.7341.7128 1.6673 1.0457 2.4919.3232.8007.8192 1.7478 1.1678 1.7478.0165 0 .0329-.0011.0491-.0029z" fill="url(#q)"/><path d="m8.11326 14.6237c.85974.5693 1.74561 1.3353 2.43954 2.0551 1.2768 1.3246 2.3245 3.0904 2.4619 3.3334l-.0466-6.2587h-6.23141c.10179.061.68815.4144 1.37657.8702z" fill="url(#r)"/><path d="m17.9341 12.768c-.713-.5003-1.5477-1.1754-2.1454-1.7893-.6204-.6372-1.2213-1.38372-1.6772-2.03016-.5984-.84851-.9664-1.52442-.9826-1.55425v6.25781h6.2016c-.1472-.0821-.7164-.4069-1.3964-.8841z" fill="url(#s)"/><path d="m27.4206 3.77997c-.7454-.31145-1.373-.61761-1.7252-.86263-.3912-.27211-.7661-.65034-1.0707-1.18077-.3013-.52457-.456-.902101-.5861-1.212547-.0975-.232772-.2956-.725833-.4673-.734228v4.300365l4.3539.0663c-.0019-.10535-.1438-.22572-.5046-.37649z" fill="url(#t)"/><path d="m27.4206 3.7843c-.7454-.31144-1.373-.61761-1.7252-.86263-.3912-.27211-.7661-.65033-1.0707-1.18077-.3013-.52457-.456-.902097-.5861-1.212544-.0975-.232772-.2956-.725832-.4673-.734228v4.300372l4.3539.06629c-.0019-.10535-.1438-.22572-.5046-.37649z" fill="url(#u)"/><path d="m27.4206 3.7843c-.7454-.31144-1.373-.61761-1.7252-.86263-.3912-.27211-.7661-.65033-1.0707-1.18077-.3013-.52457-.456-.902097-.5861-1.212544-.0975-.232772-.2956-.725832-.4673-.734228v4.300372l4.3539.06629c-.0019-.10535-.1438-.22572-.5046-.37649z" fill="url(#v)"/><path d="m27.4206 3.77997c-.7454-.31145-1.373-.61761-1.7252-.86263-.3912-.27211-.7661-.65034-1.0707-1.18077-.3013-.52457-.456-.902101-.5861-1.212547-.0975-.232772-.2956-.725833-.4673-.734228v4.300365l4.3539.0663c-.0019-.10535-.1438-.22572-.5046-.37649z" fill="url(#w)"/><path d="m23.5325 8.5505c.1919-.02179.3314-.42275.626-1.1656.2366-.59643.6728-1.2919.9845-1.60986.2408-.24558.5972-.51421 1.1424-.7802.3763-.18362.8702-.36925 1.215-.51667.2543-.10868.4247-.20045.4247-.31941 0-.0007 0-.00141 0-.00211l-4.3926-.06632z" fill="url(#x)"/><path d="m23.5325 8.5505c.1919-.02179.3314-.42275.626-1.1656.2366-.59643.6728-1.2919.9845-1.60986.2408-.24558.5972-.51421 1.1424-.7802.3763-.18362.8702-.36925 1.215-.51667.2543-.10868.4247-.20045.4247-.31941 0-.0007 0-.00141 0-.00211l-4.3926-.06632z" fill="url(#y)"/><path d="m23.5325 8.5505c.1919-.02179.3314-.42275.626-1.1656.2366-.59643.6728-1.2919.9845-1.60986.2408-.24558.5972-.51421 1.1424-.7802.3763-.18362.8702-.36925 1.215-.51667.2543-.10868.4247-.20045.4247-.31941 0-.0007 0-.00141 0-.00211l-4.3926-.06632z" fill="url(#z)"/><path d="m23.5712-.210007c-.0015-.000072-.0029-.000198-.0044-.000198-.1356 0-.2732.2890581-.4199.621415-.1448.32803-.2988.69824-.3843.87434-.2148.44223-.5054.87291-.8481 1.22846-.2605.27026-.7832.6179-1.3377.87741-.5643.26408-1.4114.52578-1.4114.7503 0 .00189.0001.00378.0002.00567l4.4056.01191z" fill="url(#A)"/><path d="m23.5712-.210007c-.0015-.000072-.0029-.000198-.0044-.000198-.1356 0-.2732.2890581-.4199.621415-.1448.32803-.2988.69824-.3843.87434-.2148.44223-.5054.87291-.8481 1.22846-.2605.27026-.7832.6179-1.3377.87741-.5643.26408-1.4114.52578-1.4114.7503 0 .00189.0001.00378.0002.00567l4.4056.01191z" fill="url(#B)"/><path d="m23.5712-.210007c-.0015-.000072-.0029-.000198-.0044-.000198-.1356 0-.2732.2890581-.4199.621415-.1448.32803-.2988.69824-.3843.87434-.2148.44223-.5054.87291-.8481 1.22846-.2605.27026-.7832.6179-1.3377.87741-.5643.26408-1.4114.52578-1.4114.7503 0 .00189.0001.00378.0002.00567l4.4056.01191z" fill="url(#C)"/><path d="m23.5712-.210007c-.0015-.000072-.0029-.000198-.0044-.000198-.1356 0-.2732.2890581-.4199.621415-.1448.32803-.2988.69824-.3843.87434-.2148.44223-.5054.87291-.8481 1.22846-.2605.27026-.7832.6179-1.3377.87741-.5643.26408-1.4114.52578-1.4114.7503 0 .00189.0001.00378.0002.00567l4.4056.01191z" fill="url(#D)"/><path d="m23.5325 4.15933-4.3669-.01181c.0131.20829.7306.44254 1.4138.76439.5558.26184 1.0953.6196 1.3402.8876.1306.14291.2964.33633.4653.60233.1294.20375.2601.45889.3812.71357.1183.24865.2414.56478.3542.84409.1095.27121.2775.59204.3956.59204.0056 0 .0111-.00036.0166-.00098z" fill="url(#E)"/><path d="m23.5325 4.15933-4.3669-.01181c.0131.20829.7306.44254 1.4138.76439.5558.26184 1.0953.6196 1.3402.8876.1306.14291.2964.33633.4653.60233.1294.20375.2601.45889.3812.71357.1183.24865.2414.56478.3542.84409.1095.27121.2775.59204.3956.59204.0056 0 .0111-.00036.0166-.00098z" fill="url(#F)"/><path d="m23.5325 4.15933-4.3669-.01181c.0131.20829.7306.44254 1.4138.76439.5558.26184 1.0953.6196 1.3402.8876.1306.14291.2964.33633.4653.60233.1294.20375.2601.45889.3812.71357.1183.24865.2414.56478.3542.84409.1095.27121.2775.59204.3956.59204.0056 0 .0111-.00036.0166-.00098z" fill="url(#G)"/><path d="m21.8722 4.44857c.2912.19283.5913.4523.8263.69613.4326.44869.7874 1.04684.834 1.12916l-.0158-2.12005h-2.1108c.0345.02066.2331.14035.4663.29476z" fill="url(#H)"/><path d="m25.1988 3.81991c-.2415-.16948-.5242-.39815-.7267-.6061-.2101-.21584-.4137-.46872-.5681-.68769-.2027-.28743-.3274-.51638-.3328-.52649v2.11977h2.1007c-.0499-.02784-.2427-.13785-.4731-.29949z" fill="url(#I)"/></g></svg>