<svg width="24" height="24" viewBox="0 0 24 24" fill="none" xmlns="http://www.w3.org/2000/svg"><path fill-rule="evenodd" clip-rule="evenodd" d="M9.297 9.5c-1.718 0-3.31.207-4.588.451-1.46.279-2.459 1.62-2.459 3.22V17A3.75 3.75 0 0 0 6 20.75h2.02l.168.52c.163.508.215 1.15.024 1.724a3.481 3.481 0 0 1-.057.158c1.015-.33 2.113-.945 2.863-2.068l.222-.334h1.51A3.75 3.75 0 0 0 16.5 17v-3.8c0-1.656-1.072-3.042-2.604-3.299A28.172 28.172 0 0 0 9.297 9.5Zm-4.87-1.022A26.213 26.213 0 0 1 9.297 8c1.8 0 3.484.194 4.846.422C16.498 8.816 18 10.916 18 13.2V17c0 2.9-2.35 5.25-5.25 5.25h-.723c-1.71 2.235-4.425 2.682-5.672 2.747a.812.812 0 0 1-.842-.64.818.818 0 0 1 .454-.907 1.48 1.48 0 0 0 .821-.93.983.983 0 0 0 .045-.27H6A5.25 5.25 0 0 1 .75 17v-3.829c0-2.202 1.401-4.259 3.678-4.693Z" fill="currentColor"/><path fill-rule="evenodd" clip-rule="evenodd" d="M9.209 4.701a24.715 24.715 0 0 1 4.588-.451c1.696 0 3.295.183 4.599.401C19.928 4.908 21 6.294 21 7.951v3.799a3.74 3.74 0 0 1-1.18 2.73.958.958 0 0 0-.32.689c0 .615.64 1.007 1.113.612A5.24 5.24 0 0 0 22.5 11.75v-3.8c0-2.284-1.502-4.384-3.857-4.778a29.67 29.67 0 0 0-4.846-.422c-1.834 0-3.523.22-4.87.478-1.475.282-2.583 1.245-3.18 2.488-.238.496.196.994.744.936a.963.963 0 0 0 .712-.489c.429-.752 1.136-1.296 2.006-1.462ZM6.75 15.125a1.125 1.125 0 1 1-2.25 0 1.125 1.125 0 0 1 2.25 0Zm3.75 0a1.125 1.125 0 1 1-2.25 0 1.125 1.125 0 0 1 2.25 0Zm2.625 1.125a1.125 1.125 0 1 0 0-2.25 1.125 1.125 0 0 0 0 2.25Z" fill="currentColor"/></svg>
