<svg width="24" height="24" viewBox="0 0 24 24" fill="none" xmlns="http://www.w3.org/2000/svg"><path fill-rule="evenodd" clip-rule="evenodd" d="M17.199 3H6.8l-5.198 9L6.8 21H17.2l5.198-9L17.2 3Zm1.107-1.082a.836.836 0 0 0-.724-.418H6.418a.836.836 0 0 0-.724.418L.112 11.582a.835.835 0 0 0 0 .836l5.582 9.664c.15.259.425.418.724.418h11.164c.299 0 .575-.16.724-.418l5.582-9.664a.835.835 0 0 0 0-.836l-5.582-9.664Z" fill="#FF0055"/><path fill-rule="evenodd" clip-rule="evenodd" d="M15.942 7.457a1 1 0 0 0-1.414 0l-2.475 2.475-2.475-2.475a1 1 0 0 0-1.414 0l-.707.707a1 1 0 0 0 0 1.414l2.475 2.475-2.475 2.475a1 1 0 0 0 0 1.414l.707.707a1 1 0 0 0 1.414 0l2.475-2.474 2.475 2.474a1 1 0 0 0 1.414 0l.707-.707a1 1 0 0 0 0-1.414l-2.474-2.475 2.474-2.475a1 1 0 0 0 0-1.414l-.707-.707Z" fill="white" fill-opacity="0.4"/></svg>
