<svg width="24" height="24" viewBox="0 0 24 24" fill="none" xmlns="http://www.w3.org/2000/svg"><path d="M11.968 11.444V5.44c-1.677 0-4.19.563-5.994 1.4 0 0-.078 2.693.245 4.603h5.75Z" fill="currentColor"/><path d="M11.968 19v-7.556h5.75c-.168.912-.344 2.452-2.148 4.426-1.52 1.663-3.195 2.84-3.602 3.13Z" fill="currentColor"/><path fill-rule="evenodd" clip-rule="evenodd" d="M4.508 5.493c-.012.937-.023 2.165.069 3.52.124 1.832.43 3.698 1.084 5.116.637 1.379 2.049 2.948 3.59 4.34A32.62 32.62 0 0 0 12 20.688a32.622 32.622 0 0 0 2.749-2.22c1.541-1.392 2.953-2.961 3.59-4.34.656-1.422.96-3.242 1.084-5.043.094-1.362.08-2.608.069-3.593a10.441 10.441 0 0 0-.245-.111 19.183 19.183 0 0 0-1.995-.731C15.648 4.155 13.72 3.75 12 3.75c-1.72 0-3.648.405-5.252.9-.794.247-1.482.506-1.995.732-.089.039-.17.076-.245.111Zm16.476-.86c0 .22.003.474.007.758.028 2.274.079 6.4-1.29 9.366-1.54 3.336-6.418 6.949-7.701 7.743-1.283-.794-6.16-4.407-7.7-7.743-1.374-2.975-1.318-7.277-1.29-9.44.003-.261.006-.492.006-.685C3.658 4.037 8.15 2.25 12 2.25c3.85 0 8.342 1.787 8.984 2.382Z" fill="currentColor"/></svg>
