<svg width="24" height="24" viewBox="0 0 24 24" fill="none" xmlns="http://www.w3.org/2000/svg">
  <path fill-rule="evenodd" clip-rule="evenodd" d="M16 5.472V5a4 4 0 0 0-8 0v7c0 .443.072.87.205 1.268L16 5.471Zm-5.268 10.323L16 10.527V12a4 4 0 0 1-5.268 3.795Zm-3.675-1.38A5.478 5.478 0 0 1 6.5 12 .75.75 0 0 0 5 12c0 1.284.346 2.488.95 3.523l1.107-1.108Zm1.42 3.635 1.108-1.107A5.5 5.5 0 0 0 17.5 12a.75.75 0 0 1 1.5 0 7.001 7.001 0 0 1-6.25 6.96v2.54H15a.75.75 0 0 1 0 1.5H9a.75.75 0 0 1 0-1.5h2.25v-2.54a6.955 6.955 0 0 1-2.773-.91Z" fill="currentColor"/>
</svg>
