<svg width="26" height="26" viewBox="0 0 26 24" fill="none" xmlns="http://www.w3.org/2000/svg"><path fill-rule="evenodd" clip-rule="evenodd" d="M10.226 22.043a1.5 1.5 0 0 1-1.696-.471c-1.189-1.479-2.9-4.056-5.134-7.425l-.741-1.116C.841 10.3.311 7.567 1.195 5.285 2.082 2.993 4.226 1.6 6.797 1.201c2.242-.348 4.194.842 5.454 1.925a12.537 12.537 0 0 1 1.615 1.68l.004.006.007-.003a12.137 12.137 0 0 1 2.221-.615c1.621-.282 3.892-.3 5.656 1.161 2.024 1.675 3.188 3.987 2.825 6.425-.36 2.427-2.165 4.512-5.075 5.93l-1.19.58c-3.588 1.752-6.334 3.092-8.089 3.753Zm4.493-15.935c-.683.238-1.183.49-1.355.622-.084-.203-.39-.68-.863-1.238-1.133-1.34-3.217-3.152-5.46-2.804-4.39.681-6.434 4.565-3.146 9.516l.723 1.088c2.26 3.406 3.928 5.92 5.07 7.34 1.686-.634 4.365-1.941 7.994-3.712l1.16-.565c5.276-2.572 5.425-6.982 1.97-9.842-1.764-1.461-4.456-.975-6.093-.405Z" fill="currentColor"/></svg>
