<svg width="16" height="16" viewBox="0 0 16 16" fill="none" xmlns="http://www.w3.org/2000/svg"><path fill-rule="evenodd" clip-rule="evenodd" d="M2.269 4.139c-.202-.005-.386.138-.405.34-.633 6.71 3.331 9.73 6.145 10.51.025.006.05.006.075 0 2.814-.78 6.778-3.8 6.145-10.51-.019-.202-.203-.345-.405-.34-2.23.056-4.608-2.006-5.455-2.818a.491.491 0 0 0-.645 0c-.848.812-3.225 2.874-5.455 2.818Zm9.323 2.764a.65.65 0 0 0-.947-.89L7.123 9.758 5.989 8.505a.65.65 0 1 0-.964.873l1.607 1.774a.65.65 0 0 0 .955.01l4.005-4.259Z" fill="#25E55F"/></svg>
