<svg width="24" height="24" viewBox="0 0 24 24" fill="none" xmlns="http://www.w3.org/2000/svg"><path fill-rule="evenodd" clip-rule="evenodd" d="M24 18.75V5.25a3 3 0 0 0-3-3H3a3 3 0 0 0-3 3v13.5a3 3 0 0 0 3 3h18a3 3 0 0 0 3-3ZM7.758 13.32a.69.69 0 0 0 1.009 0l1.807-1.915v5.849c0 .412.32.746.713.746h1.426c.394 0 .713-.334.713-.746v-5.85l1.807 1.917a.691.691 0 0 0 1.009 0l1.008-1.056a.77.77 0 0 0 0-1.055L12.504 6.22a.69.69 0 0 0-1.008 0L6.75 11.21a.77.77 0 0 0 0 1.055l1.008 1.056Z" fill="#00FF91"/></svg>
