<svg width="24" height="24" viewBox="0 0 24 24" fill="none" xmlns="http://www.w3.org/2000/svg"><path d="M15.137 4.802c.269-.268.29-.704-.002-.946A3.735 3.735 0 0 0 12.75 3H3A2.25 2.25 0 0 0 .75 5.25v8.25c0 1.385.751 2.595 1.869 3.245.223.13.502.073.685-.11.37-.369.15-1.076-.25-1.411A2.245 2.245 0 0 1 2.25 13.5V5.25A.75.75 0 0 1 3 4.5h9.75c.433 0 .837.122 1.18.334.376.232.895.28 1.207-.032ZM6.31 15.75h7.94A.75.75 0 0 0 15 15V7.06l1.353-1.353c.096.331.147.681.147 1.043V15a2.25 2.25 0 0 1-2.25 2.25H4.81l1.5-1.5ZM22.846 4.585a.75.75 0 0 1 .404.665V15a.75.75 0 0 1-1.18.614l-3.75-2.625a.75.75 0 0 1 .86-1.228l2.57 1.799V6.69l-2.57 1.8a.75.75 0 1 1-.86-1.23l3.75-2.624a.75.75 0 0 1 .776-.051Z" fill="currentColor"/><path fill-rule="evenodd" clip-rule="evenodd" d="M20.78 2.22a.75.75 0 0 1 0 1.06L3.53 20.53a.75.75 0 0 1-1.06-1.06L19.72 2.22a.75.75 0 0 1 1.06 0Z" fill="#FF0055"/></svg>
