<svg width="12" height="12" viewBox="0 0 12 12" fill="none" xmlns="http://www.w3.org/2000/svg"><path fill-rule="evenodd" clip-rule="evenodd" d="M.75 1.5A.75.75 0 0 1 1.5.75H3a.75.75 0 0 1 .75.75V3a.75.75 0 0 1-.75.75H1.5A.75.75 0 0 1 .75 3V1.5Zm3.75 0a.75.75 0 0 1 .75-.75h1.5a.75.75 0 0 1 .75.75V3a.75.75 0 0 1-.75.75h-1.5A.75.75 0 0 1 4.5 3V1.5Zm6.75 0a.75.75 0 0 0-.75-.75H9a.75.75 0 0 0-.75.75V3c0 .414.336.75.75.75h1.5a.75.75 0 0 0 .75-.75V1.5ZM.75 5.25a.75.75 0 0 1 .75-.75H3a.75.75 0 0 1 .75.75v1.5A.75.75 0 0 1 3 7.5H1.5a.75.75 0 0 1-.75-.75v-1.5Zm6.75 0a.75.75 0 0 0-.75-.75h-1.5a.75.75 0 0 0-.75.75v1.5c0 .414.336.75.75.75h1.5a.75.75 0 0 0 .75-.75v-1.5Zm.75 0A.75.75 0 0 1 9 4.5h1.5a.75.75 0 0 1 .75.75v1.5a.75.75 0 0 1-.75.75H9a.75.75 0 0 1-.75-.75v-1.5ZM3.75 9A.75.75 0 0 0 3 8.25H1.5A.75.75 0 0 0 .75 9v1.5c0 .414.336.75.75.75H3a.75.75 0 0 0 .75-.75V9Zm.75 0a.75.75 0 0 1 .75-.75h1.5A.75.75 0 0 1 7.5 9v1.5a.75.75 0 0 1-.75.75h-1.5a.75.75 0 0 1-.75-.75V9Zm6.75 0a.75.75 0 0 0-.75-.75H9a.75.75 0 0 0-.75.75v1.5c0 .414.336.75.75.75h1.5a.75.75 0 0 0 .75-.75V9Z" fill="currentColor"/></svg>
