<svg width="12" height="12" viewBox="0 0 12 12" fill="none" xmlns="http://www.w3.org/2000/svg"><g clip-path="url(#ai-clip)"><path d="M7.775 4.242c.822.859 1.969 1.363 3.066 1.742.407.14.403.72-.006.854-1.102.363-2.261.858-3.122 1.703-.86.844-1.377 1.985-1.744 3.143a.452.452 0 0 1-.857.017c-.4-1.12-.843-2.24-1.703-3.098-.855-.853-1.992-1.384-3.103-1.77-.404-.14-.41-.71-.007-.852 1.09-.386 2.267-.899 3.11-1.74.842-.84 1.375-1.975 1.759-3.067a.452.452 0 0 1 .852 0c.415 1.165.95 2.225 1.755 3.067v.001ZM10.77 1.23c.299.314.718.499 1.12.637.147.052.147.263-.002.312-.403.132-.827.313-1.142.622-.318.313-.503.725-.637 1.149a.165.165 0 0 1-.313.006c-.145-.41-.308-.819-.622-1.132-.315-.313-.728-.506-1.134-.647-.148-.051-.15-.26-.003-.311.398-.142.829-.329 1.136-.636.307-.307.503-.722.642-1.121a.165.165 0 0 1 .312 0c.151.426.346.813.641 1.121h.001Z" fill="currentColor"/></g><defs><clipPath id="ai-clip"><rect width="12" height="12" fill="white"/></clipPath></defs></svg>
