<svg width="75" height="26" viewBox="0 0 75 26" fill="none" xmlns="http://www.w3.org/2000/svg"><g opacity="1"><g clip-path="url(#clip0_2663_9018)"><path d="M11.6203 11.5229H13.6808L11.0625 22.944H8.73879L6.84833 14.1851L4.98913 22.944H2.63414L0 11.5229H2.13836L3.93559 20.3448L5.71746 11.5229H7.99511L9.91574 20.3604L11.6203 11.5229ZM17.7715 23.1486C15.7418 23.1486 13.6659 21.7779 13.6659 18.7221C13.6659 15.6656 15.7418 14.2793 17.7715 14.2793C19.8013 14.2793 21.8771 15.6656 21.8771 18.7221C21.8771 21.7779 19.8013 23.1486 17.7715 23.1486ZM19.9719 18.7221C19.9719 16.7686 18.9337 15.8078 17.7715 15.8078C16.6094 15.8078 15.5712 16.7686 15.5712 18.7221C15.5712 20.6755 16.6094 21.6207 17.7715 21.6207C18.9337 21.6207 19.9719 20.6755 19.9719 18.7221ZM26.7763 16.3275C25.6142 16.3275 24.9484 16.7999 24.9484 18.5012V22.944H23.1046V14.4683H24.9171V15.9807C25.3663 15.0355 26.172 14.4683 27.1794 14.4527C27.3187 14.4527 27.52 14.4683 27.6593 14.4845V16.3749C27.3494 16.3431 27.0555 16.3275 26.7763 16.3275ZM30.6412 17.8711L33.7239 14.4683H35.9396L32.7483 17.9503L36.2961 22.944H34.1424L31.5241 19.2736L30.6412 20.2344V22.944H28.7973V11.5229H30.6412L30.6412 17.8711ZM38.9511 15.6026C39.4469 14.7678 40.3145 14.2793 41.43 14.2793C43.4598 14.2793 45.0091 15.9968 45.0091 18.7064C45.0091 21.4317 43.4598 23.1486 41.43 23.1486C40.3145 23.1486 39.4469 22.6601 38.9511 21.8254V25.701H37.1078V14.4683H38.9511V15.6026ZM43.0879 18.7064C43.0879 16.9259 42.3135 15.8078 41.0275 15.8078C39.8187 15.8078 38.8738 16.753 38.8738 18.7064C38.8738 20.6599 39.8187 21.6207 41.0275 21.6207C42.3135 21.6207 43.0879 20.5021 43.0879 18.7064ZM46.4098 22.944V11.5229H48.2537V22.944H46.4098ZM55.2238 17.6508V17.493C55.2238 16.0437 54.4027 15.6026 53.4885 15.6026C52.5589 15.6026 51.8618 16.1067 51.8152 17.1311H50.0026C50.1266 15.3979 51.5366 14.2163 53.5505 14.2163C55.549 14.2163 57.1139 15.1459 57.0679 17.8555C57.0679 18.281 57.0361 19.2736 57.0361 20.0454C57.0361 21.1166 57.1293 22.2352 57.284 22.944H55.5956C55.5336 22.5815 55.4716 22.3769 55.4409 21.7941C54.9139 22.7075 53.9223 23.1486 52.6982 23.1486C50.8856 23.1486 49.6154 22.156 49.6154 20.6125C49.6154 18.5012 52.1717 17.9659 55.2238 17.6508ZM51.5673 20.5651C51.5673 21.3056 52.1717 21.7467 53.1013 21.7467C54.4647 21.7467 55.2704 21.038 55.2704 19.6043V18.9585C52.6368 19.2106 51.5673 19.5886 51.5673 20.5651ZM64.2579 17.367C64.1032 16.4692 63.3288 15.839 62.3208 15.839C61.1746 15.839 60.1369 16.7056 60.1369 18.7065C60.1369 20.7229 61.1899 21.5889 62.2747 21.5889C63.1731 21.5889 64.0879 21.1796 64.3204 20.0454H66.1171C65.7452 22.03 64.0253 23.1486 62.244 23.1486C59.8265 23.1486 58.2306 21.2426 58.2306 18.7221C58.2306 16.2015 59.8419 14.2793 62.3208 14.2793C64.1339 14.2793 65.7452 15.4766 66.0556 17.367L64.2579 17.367ZM71.0387 21.5889C71.9996 21.5889 72.7586 21.1952 73.0833 20.4078H74.8965C74.5093 21.7623 73.2698 23.1486 71.1166 23.1486C68.4359 23.1486 66.9024 21.0692 66.9024 18.6434C66.9024 16.0911 68.6212 14.2793 70.9927 14.2793C73.5484 14.2793 75.1443 16.3906 74.9897 19.2418H68.777C68.9009 20.8171 69.9847 21.5889 71.0387 21.5889ZM73.1151 17.8711C73.068 16.5478 72.0764 15.7448 70.9927 15.7448C70.1251 15.7448 68.9317 16.2645 68.777 17.8711H73.1151Z" fill="#323539"/><path d="M6.40222 6.95511H0.943952C0.560992 6.95511 0.218832 6.72264 0.0722826 6.36289C-0.0742667 6.00315 0.0060251 5.59274 0.276828 5.31744L4.05757 1.47325H1.34784C0.603449 1.47325 4.76156e-06 0.859672 4.76156e-06 0.102785H5.03373C5.41666 0.102785 5.7588 0.335188 5.90537 0.694936C6.05195 1.05468 5.9717 1.46502 5.70094 1.74045L1.92019 5.58464H5.0544C5.79879 5.58464 6.40222 6.19822 6.40222 6.95511ZM30.5285 2.67241C30.5285 1.19882 29.3494 0 27.9002 0C27.125 0 26.4273 0.343217 25.9459 0.887823C25.4644 0.343217 24.7667 0 23.9915 0C22.5423 0 21.3632 1.19882 21.3632 2.67241V6.95511C22.1076 6.95511 22.711 6.34154 22.711 5.58465V2.67241C22.711 1.95452 23.2855 1.37046 23.9915 1.37046C24.6975 1.37046 25.2719 1.95452 25.2719 2.67241V5.58465C25.2719 6.34154 25.8754 6.95511 26.6198 6.95511V2.67241C26.6198 1.95452 27.1942 1.37046 27.9002 1.37046C28.6063 1.37046 29.1807 1.95452 29.1807 2.67241V5.58465C29.1807 6.34154 29.7841 6.95511 30.5285 6.95511L30.5285 2.67241ZM20.6893 3.52895C20.6893 5.47794 19.1354 7.0579 17.2186 7.0579C15.3018 7.0579 13.7479 5.47794 13.7479 3.52895C13.7479 1.57996 15.3018 0 17.2186 0C19.1354 0 20.6893 1.57996 20.6893 3.52895ZM19.3414 3.52895C19.3414 2.33685 18.391 1.37047 17.2186 1.37047C16.0462 1.37047 15.0958 2.33685 15.0958 3.52895C15.0958 4.72104 16.0462 5.68743 17.2186 5.68743C18.391 5.68743 19.3414 4.72104 19.3414 3.52895ZM13.2088 3.52895C13.2088 5.47794 11.6549 7.0579 9.73812 7.0579C7.82131 7.0579 6.26744 5.47794 6.26744 3.52895C6.26744 1.57996 7.82132 0 9.73812 0C11.6549 0 13.2088 1.57996 13.2088 3.52895ZM11.861 3.52895C11.861 2.33685 10.9105 1.37047 9.73812 1.37047C8.56571 1.37047 7.61528 2.33685 7.61528 3.52895C7.61528 4.72104 8.56571 5.68743 9.73812 5.68743C10.9105 5.68743 11.861 4.72104 11.861 3.52895Z" fill="#323539"/></g></g><defs><clipPath id="clip0_2663_9018"><rect width="75" height="26" fill="white"/></clipPath></defs></svg>
